<?xml version="1.0" encoding="UTF-8"?>
<svg version="1.1" xmlns="http://www.w3.org/2000/svg" width="1254" height="1254">
<path d="M0 0 C413.82 0 827.64 0 1254 0 C1254 413.82 1254 827.64 1254 1254 C840.18 1254 426.36 1254 0 1254 C0 840.18 0 426.36 0 0 Z " fill="#FDFDFD" transform="translate(0,0)"/>
<path d="M0 0 C1.33765866 -0.00551503 1.33765866 -0.00551503 2.70234072 -0.01114148 C5.7029843 -0.02219083 8.70359326 -0.02602436 11.70425415 -0.02983093 C13.85106517 -0.03609487 15.9978751 -0.04274161 18.14468384 -0.04974365 C25.20831546 -0.07080277 32.27194733 -0.08115088 39.33560181 -0.09111023 C41.76811357 -0.09515773 44.20062522 -0.09927465 46.63313675 -0.10346031 C58.06632223 -0.12251962 69.49950124 -0.13674654 80.93269956 -0.14507228 C94.12009359 -0.15483417 107.30731931 -0.18112331 120.49465406 -0.22157317 C130.69186238 -0.25177469 140.88902258 -0.26654518 151.08627474 -0.26985329 C157.17384785 -0.27220006 163.2612413 -0.28111151 169.34876633 -0.30631447 C175.08287378 -0.32966923 180.81668426 -0.33379856 186.55082703 -0.32355309 C188.64815384 -0.32305934 190.74549563 -0.32933181 192.84277725 -0.34310913 C211.15471503 -0.45660684 225.59639152 1.88342493 239.62466431 14.83467102 C250.0156026 25.86570818 253.86368052 38.3869886 253.71524048 53.20625305 C253.71567856 54.36838821 253.71611664 55.53052338 253.71656799 56.72787476 C253.71449197 60.53708693 253.69121639 64.34584903 253.66763306 68.15498352 C253.66203288 70.80870813 253.65761705 73.4624084 253.6547699 76.11613464 C253.64548416 82.36679624 253.62091804 88.61729848 253.59072143 94.86789024 C253.55706856 101.99009222 253.54066419 109.11230223 253.52563512 116.23456407 C253.4943649 130.87218153 253.44167278 145.50967404 253.37466431 160.14717102 C252.56352173 160.47547913 251.75237915 160.80378723 250.91665649 161.14204407 C249.84576782 161.58072815 248.77487915 162.01941223 247.67153931 162.47138977 C246.61289673 162.90282288 245.55425415 163.33425598 244.46353149 163.77876282 C231.33044076 169.59689225 221.95204187 179.96228744 216.5296936 193.21186829 C214.57040367 198.58867378 213.79479096 203.49923262 213.81216431 209.20967102 C213.8138562 210.02532532 213.8155481 210.84097961 213.81729126 211.68135071 C214.15273777 223.24584112 218.45998511 232.99538973 225.37466431 242.14717102 C225.78340949 245.13567198 225.77488012 246.57291667 224.03286743 249.07246399 C223.10377563 249.97182678 223.10377563 249.97182678 222.15591431 250.88935852 C221.47013306 251.56353821 220.78435181 252.2377179 220.07778931 252.93232727 C219.35075806 253.62197571 218.62372681 254.31162415 217.87466431 255.02217102 C217.17857056 255.70408508 216.48247681 256.38599915 215.76528931 257.08857727 C213.16031898 259.62118731 210.55792821 262.13995923 207.79017639 264.49591064 C200.8924759 270.37950845 194.55985315 276.81707781 188.15982056 283.22920227 C186.89584182 284.49250634 185.63171476 285.75566203 184.3674469 287.01867676 C181.73435594 289.65030164 179.10306186 292.2837063 176.47305298 294.91841125 C173.09813317 298.29906307 169.71869588 301.67515797 166.33792973 305.04996204 C163.73426368 307.65002296 161.13297355 310.25245036 158.53240776 312.8556118 C157.28636549 314.10232166 156.03957857 315.34828771 154.79203987 316.59350014 C153.05681951 318.32619101 151.32481958 320.06203713 149.59365845 321.79878235 C149.07682999 322.31358658 148.56000153 322.82839081 148.0275116 323.35879517 C144.3682153 326.81799532 144.3682153 326.81799532 143.37121582 331.51074219 C143.45195847 332.99886162 143.45195847 332.99886162 143.53433228 334.51704407 C146.06902279 388.10620747 146.06902279 388.10620747 135.99832153 399.69491577 C131.94844595 403.80753966 127.33276762 407.24315122 122.37832642 410.1933136 C114.67316788 415.20545566 108.35013899 422.04464184 101.91372681 428.54560852 C101.04194794 429.42117401 100.17016907 430.2967395 99.27197266 431.19883728 C96.04089116 434.44412149 92.81447529 437.6940193 89.58816528 440.94404602 C86.40774332 444.14728543 83.22360708 447.34680285 80.03872681 450.54560852 C79.19919464 451.39343903 78.35966248 452.24126953 77.49468994 453.11479187 C76.71983246 453.89295258 75.94497498 454.67111328 75.14663696 455.47285461 C74.46461212 456.16011627 73.78258728 456.84737793 73.07989502 457.5554657 C70.02418208 460.40774517 67.91073868 460.2624498 63.83076477 460.23136902 C62.65199265 460.22526108 61.47322052 460.21915314 60.25872803 460.21286011 C58.95853729 460.20133408 57.65834656 460.18980804 56.3187561 460.17793274 C54.94056025 460.16950776 53.56236067 460.16167387 52.18415833 460.15438843 C49.97878385 460.14262135 47.773419 460.13041528 45.56805742 460.11641955 C40.0869701 460.08184857 34.60605327 460.06569536 29.12486267 460.06077576 C28.32906522 460.06004307 27.53326777 460.05931038 26.71335524 460.05855548 C23.42823744 460.05588952 20.14311952 460.05384284 16.85800111 460.05207992 C7.54310817 460.04630803 -1.77094554 460.02276991 -11.08554077 459.94502258 C-18.48424107 459.88338751 -25.88190846 459.86104901 -33.2808463 459.88383496 C-37.19281619 459.89442899 -41.10252846 459.88582756 -45.01415443 459.82950974 C-64.20520948 458.68275567 -64.20520948 458.68275567 -80.79794312 466.4445343 C-82.45324005 468.30534992 -84.06721326 470.20426155 -85.62533569 472.14717102 C-87.4244886 473.68800194 -89.25395481 475.19491598 -91.12533569 476.64717102 C-95.16516706 479.93540585 -99.15625634 483.27438528 -103.12533569 486.64717102 C-107.97353694 490.76700401 -112.87379414 494.81513066 -117.80892944 498.83076477 C-120.96319046 501.42504602 -124.07726371 504.06334998 -127.18783569 506.70967102 C-131.79878353 510.62840209 -136.45069696 514.48035364 -141.21127319 518.21748352 C-142.93282669 519.59361204 -144.62259387 521.0099017 -146.28939819 522.45185852 C-147.16338257 523.19693665 -148.03736694 523.94201477 -148.93783569 524.70967102 C-149.71771851 525.39158508 -150.49760132 526.07349915 -151.30111694 526.77607727 C-153.62533569 528.14717102 -153.62533569 528.14717102 -156.22689819 527.99092102 C-158.62533569 527.14717102 -158.62533569 527.14717102 -161.68783569 525.08467102 C-166.66933811 522.09794966 -172.01316954 522.54231273 -177.62533569 523.14717102 C-184.16200516 524.86170727 -187.82368216 528.76320764 -191.62533569 534.14717102 C-194.50020723 540.27189733 -194.28928385 545.8276764 -192.12533569 552.14717102 C-189.84863209 557.49212034 -186.41684467 560.92987444 -181.62533569 564.14717102 C-175.72127976 566.11518966 -169.7129495 566.08937456 -163.62533569 565.14717102 C-157.59267253 561.79316206 -152.97346624 556.85550079 -150.97299194 550.17842102 C-150.5967264 547.98001562 -150.55756064 545.87512896 -150.50033569 543.64717102 C-150.12283796 539.62510421 -148.922374 537.9654008 -145.93783569 535.27217102 C-144.18768367 533.87094171 -142.41419105 532.49864141 -140.62533569 531.14717102 C-139.55059098 530.30836218 -138.47776202 529.46709451 -137.40658569 528.62373352 C-135.65401532 527.24471101 -133.90009286 525.86784964 -132.13900757 524.49971008 C-127.18613356 520.64070611 -122.41452105 516.59854352 -117.66781616 512.4901886 C-113.30980933 508.72055554 -108.875954 505.05699763 -104.40267944 501.42451477 C-101.28136803 498.86512721 -98.20097125 496.26107797 -95.12533569 493.64717102 C-89.34936381 488.74342967 -83.53904201 483.88467056 -77.62533569 479.14717102 C-77.03606985 478.58745417 -76.44680401 478.02773731 -75.83968163 477.45105934 C-69.41901138 471.74025181 -63.97262884 470.92851842 -55.56137085 470.54316711 C-54.27569592 470.46139945 -52.99002098 470.37963179 -51.6653862 470.29538631 C-47.41706542 470.03402557 -43.16687725 469.84912917 -38.91439819 469.67060852 C-37.43265897 469.60420455 -35.95092505 469.53768229 -34.46919632 469.47104454 C-24.21342581 469.02360828 -13.95745868 468.74908598 -3.69377327 468.56640863 C-1.25513505 468.52225791 1.18334797 468.47250488 3.62187195 468.42248154 C75.06574505 467.04771437 75.06574505 467.04771437 97.34490395 488.32440948 C105.87533659 497.02121586 113.04629935 507.07718822 119.00650024 517.67085266 C122.05265791 522.9765018 125.50971169 526.49587382 130.37466431 530.14717102 C142.22545653 539.12746479 142.22545653 539.12746479 143.37905884 546.87324524 C143.80859175 552.28397538 143.64150156 557.66712624 143.43716431 563.08467102 C143.38098091 565.87720297 143.34191693 568.6690275 143.31666565 571.46200562 C143.29593013 573.18752492 143.25478208 574.91295856 143.19010925 576.63739014 C143.02179594 583.58513637 144.98325388 586.75759012 149.74111938 591.75654602 C151.12019184 593.14203629 152.50489227 594.52193995 153.89419556 595.89717102 C154.6303862 596.63290344 155.36657684 597.36863586 156.12507629 598.12666321 C157.68027081 599.67884284 159.23788885 601.22859753 160.79776001 602.77607727 C163.17354919 605.13366024 165.54128877 607.49909623 167.90786743 609.86592102 C169.42367354 611.37680929 170.93993481 612.88724109 172.45669556 614.39717102 C173.16002518 615.09938782 173.8633548 615.80160461 174.58799744 616.52510071 C178.37607019 620.27713343 182.24295941 623.77870639 186.37466431 627.14717102 C187.43161651 628.28121857 188.45713648 629.44602271 189.43716431 630.64717102 C194.25182819 636.3019776 199.58747721 641.44874841 204.87319946 646.65791321 C206.26207478 648.03549686 207.63177418 649.43234138 208.99966431 650.83076477 C211.15245229 652.93044121 213.36252435 654.70297514 215.74966431 656.52217102 C217.82388306 658.32685852 217.82388306 658.32685852 219.37466431 660.14717102 C219.65513557 665.38263451 217.47449512 669.42255169 215.37466431 674.14717102 C211.88468678 687.64977374 214.19146117 700.93057804 220.37466431 713.14717102 C226.11768207 722.49596478 235.17242835 730.8253073 245.91372681 733.86592102 C247.4777948 734.2035611 249.04814992 734.51409561 250.62466431 734.78779602 C252.37466431 735.14717102 252.37466431 735.14717102 253.37466431 736.14717102 C253.48582877 738.86351397 253.53206052 741.55466428 253.53579712 744.27192688 C253.54076202 745.12407776 253.54572693 745.97622864 253.55084229 746.85420227 C253.56551478 749.69014786 253.57227741 752.52603736 253.57778931 755.36201477 C253.58354045 757.33203127 253.58929819 759.30204775 253.59506226 761.27206421 C253.60558933 765.41411094 253.61141953 769.55613818 253.61489868 773.69819641 C253.62036034 778.98730893 253.644331 784.27616099 253.67287064 789.56519222 C253.69157287 793.64118171 253.69670684 797.71710974 253.69823456 801.7931385 C253.70124896 803.74143954 253.70923622 805.68973981 253.72241974 807.63799858 C253.8451622 827.1866573 253.8451622 827.1866573 250.37466431 835.14717102 C249.88868774 836.29185852 249.40271118 837.43654602 248.90200806 838.61592102 C241.592027 852.55337876 231.74967276 861.10391286 217.08560181 866.35029602 C211.24538778 868.06701599 205.64283529 868.29572035 199.60961914 868.29434204 C198.73907918 868.29801873 197.86853921 868.30169542 196.97161925 868.30548352 C194.06087692 868.31647745 191.15017034 868.32035689 188.2394104 868.32417297 C186.14964689 868.33044085 184.05988449 868.33708794 181.97012329 868.34408569 C175.11279064 868.36508947 168.25545785 868.37548449 161.39810181 868.38545227 C159.03397231 868.38950117 156.66984292 868.39361813 154.30571365 868.39780235 C143.19770758 868.41684574 132.08970811 868.4310787 120.98168886 868.43941432 C108.17465621 868.44918458 95.36779648 868.47550234 82.56082475 868.51591522 C72.65146725 868.5461078 62.74215924 868.56088618 52.83275664 868.56419533 C46.91907992 868.56654214 41.00558814 868.57545489 35.09196091 868.60065651 C29.52525244 868.62399721 23.95884989 868.62814624 18.3921051 868.61789513 C16.35563258 868.61740112 14.31914469 868.62368131 12.28271866 868.63745117 C-5.41242513 868.75035162 -19.41872261 866.04947913 -32.81283569 853.58467102 C-42.61279695 843.35258549 -46.94028961 831.65724637 -46.89707947 817.72592163 C-46.90470972 816.35077862 -46.90470972 816.35077862 -46.91249412 814.94785494 C-46.92709193 811.89323793 -46.9276871 808.83878327 -46.92831421 805.78413391 C-46.93597941 803.58755685 -46.94452654 801.39098272 -46.95388794 799.19441223 C-46.9721343 794.47400658 -46.98419325 789.75364029 -46.99142647 785.03320503 C-47.0029208 777.57614978 -47.02837798 770.11918192 -47.05574036 762.66217041 C-47.09262523 752.21569489 -47.12335772 741.76921826 -47.14852905 731.32270813 C-47.15012635 730.66058736 -47.15172366 729.99846659 -47.15336936 729.31628155 C-47.15496826 728.65329845 -47.15656716 727.99031535 -47.15821451 727.30724186 C-47.18093994 717.89116711 -47.20557275 708.47509993 -47.23251343 699.05903625 C-47.23440957 698.39560343 -47.23630572 697.73217061 -47.23825932 697.04863376 C-47.26999297 686.00249315 -47.30574155 674.95636725 -47.34355491 663.91024584 C-47.36853232 656.48929616 -47.38793807 649.06835822 -47.40293705 641.6473819 C-47.41310426 637.04539501 -47.42724903 632.44342642 -47.44241333 627.84145355 C-47.44859468 625.69878251 -47.45303941 623.55610569 -47.45567131 621.41342735 C-47.45945342 618.50209557 -47.46924054 615.59084557 -47.48057556 612.67953491 C-47.48018943 611.82022324 -47.4798033 610.96091157 -47.47940546 610.07556015 C-47.13498118 606.30516801 -47.13498118 606.30516801 -48.62533569 603.14717102 C-51.60272584 603.04785691 -54.55707131 603.01453206 -57.53492737 603.02259827 C-58.48145512 603.02118812 -59.42798288 603.01977797 -60.4031933 603.01832509 C-63.60119741 603.01465116 -66.79915776 603.01801767 -69.99716187 603.02119446 C-72.27998387 603.01980061 -74.56280562 603.01790191 -76.84562683 603.01553345 C-81.77675268 603.01102507 -86.70787018 603.00918011 -91.63899803 603.00907135 C-99.44349154 603.00793325 -107.2479375 602.99510943 -115.05241394 602.97950745 C-117.0511365 602.97560053 -119.04985907 602.97169362 -121.04858163 602.96778752 C-122.39483353 602.96515148 -123.7410854 602.96250551 -125.08733725 602.9598497 C-132.69399526 602.94489076 -140.30065506 602.93127529 -147.90731812 602.91914368 C-148.60288412 602.91803012 -149.29845013 602.91691655 -150.0150939 602.91576925 C-161.25733666 602.89823855 -172.49954338 602.89532195 -183.74179753 602.89699408 C-195.29295152 602.89827653 -206.84394959 602.88011038 -218.39505559 602.84597611 C-224.87673124 602.82754638 -231.35813809 602.81814684 -237.83983421 602.83045197 C-243.94746514 602.84193289 -250.0546164 602.83008094 -256.16218376 602.80081749 C-258.39613734 602.79420462 -260.6301352 602.79599581 -262.86407089 602.80711555 C-279.06580092 602.88102556 -292.41633907 601.54029627 -305.62533569 591.14717102 C-306.31111694 590.62381165 -306.99689819 590.10045227 -307.70346069 589.56123352 C-319.62834559 579.86657519 -326.82630257 565.25759414 -328.62533569 550.14717102 C-328.76554778 546.94896373 -328.76894139 543.75494496 -328.76577759 540.55401611 C-328.76874871 539.60644536 -328.77171983 538.65887461 -328.77478099 537.68258959 C-328.78343143 534.51704715 -328.78497315 531.35154269 -328.78646851 528.18598938 C-328.79109931 525.91213399 -328.79612433 523.63827938 -328.80151367 521.36442566 C-328.81461546 515.19260968 -328.82107845 509.02080456 -328.82552433 502.84897685 C-328.828459 498.9892371 -328.83256459 495.1295003 -328.8370285 491.26976204 C-328.84913343 480.56628858 -328.85951646 469.86281872 -328.86290359 459.15933895 C-328.86312316 458.47515325 -328.86334273 457.79096754 -328.86356895 457.08604893 C-328.86378722 456.40029918 -328.8640055 455.71454943 -328.86423039 455.00801939 C-328.86467385 453.61861225 -328.86512041 452.22920511 -328.86557007 450.83979797 C-328.8657915 450.15061559 -328.86601293 449.4614332 -328.86624107 448.7513665 C-328.87018484 437.59678126 -328.887628 426.44226151 -328.91092959 415.28770154 C-328.93470427 403.813261 -328.94685081 392.33886259 -328.94827151 380.86439615 C-328.94931724 374.43092064 -328.95517563 367.99753755 -328.97309113 361.56408501 C-328.9896296 355.50739484 -328.99169927 349.450866 -328.98295212 343.39416122 C-328.9821848 341.17954004 -328.98648386 338.96490997 -328.99641037 336.7503109 C-329.08524265 315.68501685 -327.26337982 297.13732353 -311.79330444 281.25263977 C-311.07787476 280.55783508 -310.36244507 279.8630304 -309.62533569 279.14717102 C-308.81515991 278.30605774 -308.81515991 278.30605774 -307.98861694 277.44795227 C-298.39723263 268.24312249 -284.95455252 263.84028061 -271.93797302 263.86869812 C-270.98052435 263.86290572 -270.02307567 263.85711332 -269.0366134 263.85114539 C-265.83836985 263.83418232 -262.64027094 263.83127204 -259.44198608 263.82832336 C-257.14541268 263.81902265 -254.84884264 263.80885377 -252.55227661 263.79788208 C-246.3235581 263.77058424 -240.0948622 263.75543323 -233.8660996 263.74245405 C-227.3544577 263.72682264 -220.84286198 263.70003242 -214.33125305 263.67442322 C-203.40382228 263.63295132 -192.47638958 263.59835685 -181.54891968 263.56904602 C-170.295646 263.5388424 -159.0423976 263.50448383 -147.78915405 263.46455383 C-146.74795769 263.46086151 -146.74795769 263.46086151 -145.68572707 263.45709459 C-142.20333266 263.44471964 -138.72093855 263.43226318 -135.23854458 263.41976619 C-106.36751107 263.31626441 -77.49644349 263.22718628 -48.62533569 263.14717102 C-48.62313585 261.44757044 -48.62313585 261.44757044 -48.62089157 259.71363449 C-48.58426658 232.1201158 -48.52477753 204.52671821 -48.44143295 176.93330002 C-48.40165494 163.58921743 -48.36925611 150.24521275 -48.3543396 136.90107727 C-48.34131674 125.26783365 -48.31433563 113.63471963 -48.27072263 102.00154901 C-48.24812237 95.84413666 -48.23242417 89.68688408 -48.23345184 83.52942657 C-48.23419928 77.72799748 -48.21621418 71.92692138 -48.18416786 66.12558365 C-48.17568368 64.00206488 -48.1739088 61.87850645 -48.179533 59.75497818 C-48.22172153 41.36998282 -45.35087465 27.57267627 -32.68783569 13.45967102 C-23.99948024 5.10258735 -11.8968457 -0.00261609 0 0 Z " fill="#102B50" transform="translate(518.6253356933594,181.8528289794922)"/>
<path d="M0 0 C1.07164902 -0.00810448 1.07164902 -0.00810448 2.16494751 -0.01637268 C4.52567079 -0.0288719 6.8851762 -0.0123508 9.24584961 0.00561523 C10.89529992 0.00546015 12.5447506 0.00396966 14.19419861 0.00120544 C17.65518263 -0.00017948 21.11575278 0.01238541 24.57666016 0.03515625 C28.98570182 0.06338561 33.39404785 0.06084745 37.80313969 0.04806614 C41.21353451 0.04106217 44.62377248 0.0489542 48.03414726 0.06132317 C49.65783521 0.06580307 51.28154023 0.06620513 52.90522957 0.06225777 C61.94028331 0.05058526 70.21591366 0.45666766 78.83569336 3.50170898 C79.92881836 3.86651367 81.02194336 4.23131836 82.14819336 4.60717773 C98.84938157 11.33134799 110.71481728 22.98831264 118.14819336 39.31420898 C121.81836693 48.14458385 122.98591648 56.25246933 122.97613525 65.75318909 C122.97910638 66.66400787 122.9820775 67.57482665 122.98513865 68.513246 C122.99378545 71.554413 122.9953305 74.59554045 122.99682617 77.63671875 C123.00145724 79.82190535 123.00648229 82.00709114 123.01187134 84.192276 C123.0249707 90.12236414 123.03143566 96.05244098 123.035882 101.98254132 C123.0388171 105.69152239 123.04292276 109.40050039 123.04738617 113.1094799 C123.06184039 125.39281019 123.07117292 137.67613202 123.07525268 149.95947004 C123.07558683 150.95164663 123.07558683 150.95164663 123.07592773 151.96386719 C123.07625988 152.95726747 123.07625988 152.95726747 123.07659873 153.97073644 C123.08029717 164.0228367 123.09510476 174.07487682 123.11694336 184.12695312 C123.14226211 195.81990185 123.15712292 207.5128033 123.15862918 219.20578045 C123.15967465 225.38774644 123.16552745 231.56961623 123.18344879 237.7515583 C123.19999384 243.57186701 123.2020538 249.39200785 123.19330978 255.21233177 C123.19254281 257.33987504 123.1968369 259.46742758 123.20676804 261.59494781 C123.30752743 284.53946643 119.59743938 303.1372109 103.21899414 320.14624023 C86.81558739 336.21961021 65.72747546 337.97047467 44.11303711 337.90014648 C41.9177694 337.90217012 39.72250236 337.90508396 37.52723694 337.90884399 C32.95070934 337.91324532 28.37435849 337.90690157 23.79785156 337.89282227 C17.92653754 337.87564033 12.05563227 337.88564219 6.18433285 337.90353966 C1.66255079 337.91435916 -2.85913357 337.91094116 -7.3809185 337.90315628 C-9.54711391 337.90115391 -11.71331816 337.90361483 -13.87950325 337.91059494 C-16.89533326 337.91818908 -19.91048989 337.90663782 -22.92626953 337.88989258 C-24.27039665 337.89900162 -24.27039665 337.89900162 -25.64167786 337.90829468 C-26.46146118 337.89983521 -27.28124451 337.89137573 -28.12586975 337.88265991 C-28.83757859 337.88152884 -29.54928743 337.88039776 -30.28256321 337.87923241 C-32.78295887 337.37759232 -33.65736461 336.53739669 -35.16430664 334.50170898 C-35.93027608 327.60798401 -35.93027608 327.60798401 -33.71302795 324.40565491 C-29.90969481 321.56448879 -26.52030359 321.95240881 -21.88867188 322.00341797 C-20.94990707 321.99789917 -20.01114227 321.99238037 -19.04393005 321.98669434 C-17.00544259 321.97737008 -14.96689688 321.97727266 -12.92840385 321.98528862 C-9.69449221 321.99791364 -6.4614349 321.98663019 -3.22755432 321.96925354 C2.4810995 321.94251193 8.18954472 321.93695874 13.89825439 321.93835449 C23.01027698 321.94057915 32.12203921 321.92627319 41.23396111 321.88276863 C44.40624198 321.87298276 47.57810949 321.8816243 50.75038147 321.89146423 C68.50695289 321.87165235 81.43023786 319.13985802 94.80053711 306.68920898 C104.69612575 296.05287571 107.99117736 281.80022284 107.97613525 267.66746521 C107.97910638 266.78946371 107.9820775 265.9114622 107.98513865 265.00685459 C107.99379595 262.07080349 107.9953314 259.13479331 107.99682617 256.19873047 C108.00145652 254.09088555 108.00648147 251.98304147 108.01187134 249.87519836 C108.02497816 244.15172314 108.03143718 238.42825964 108.035882 232.70477176 C108.03881605 229.12562386 108.04292153 225.54647914 108.04738617 221.96733284 C108.0610578 210.75947664 108.07072558 199.55162773 108.07458806 188.34376377 C108.07906537 175.42414201 108.09659954 162.50462624 108.12558866 149.5850367 C108.14723948 139.58734085 108.15729419 129.58967475 108.15862918 119.59195572 C108.15967495 113.62630483 108.16553397 107.66075361 108.18344879 101.69512749 C108.19998782 96.0783857 108.2020567 90.46181788 108.19330978 84.84506035 C108.19254248 82.79127535 108.19684141 80.73748078 108.20676804 78.68371964 C108.29048148 60.27413705 106.78412988 43.9217789 93.77319336 29.62670898 C84.36882566 20.88257943 71.941207 16.25882399 59.19799805 16.24633789 C58.48149078 16.24271744 57.76498352 16.23909698 57.02676392 16.23536682 C55.48706068 16.22852695 53.94733349 16.22595711 52.40761566 16.227314 C49.96935338 16.22828673 47.53152288 16.21525291 45.09332275 16.19833374 C38.16698412 16.15226308 31.24069588 16.12743159 24.31420898 16.12084961 C20.0643214 16.11583921 15.81489432 16.09162703 11.56516266 16.05552292 C9.94966647 16.04572643 8.33410698 16.04339218 6.71858978 16.04869461 C4.46382637 16.05575494 2.21044338 16.03851116 -0.04418945 16.01586914 C-1.9665744 16.01159409 -1.9665744 16.01159409 -3.92779541 16.00723267 C-7.16430664 15.50170898 -7.16430664 15.50170898 -9.57806396 13.68832397 C-11.89611545 10.49292002 -11.71377458 8.34798457 -11.16430664 4.50170898 C-7.97313065 0.09347336 -5.26546324 0.0006781 0 0 Z " fill="#06CEA8" transform="translate(952.164306640625,445.498291015625)"/>
<path d="M0 0 C4.96382232 3.95835725 8.53754554 8.07932055 9.49609375 14.47265625 C9.85548251 21.85904095 8.52491559 27.72686123 4.08203125 33.7109375 C0.72526979 36.91749368 -2.50601186 39.2402852 -6.91796875 40.7109375 C-6.91851352 41.31777909 -6.91905828 41.92462069 -6.91961956 42.54985142 C-6.93460229 57.33180947 -6.97710929 72.11349715 -7.05005932 86.89527225 C-7.08467775 94.04374143 -7.11006068 101.19201841 -7.11352539 108.34057617 C-7.11656971 114.57300785 -7.13712242 120.80509696 -7.17849332 127.03739637 C-7.19978356 130.33593955 -7.20983331 133.63388942 -7.20412254 136.93251228 C-7.19922589 140.61968253 -7.22527173 144.30543558 -7.25854492 147.99243164 C-7.24560646 149.62378807 -7.24560646 149.62378807 -7.23240662 151.2881012 C-7.35288216 159.25472543 -9.11689826 162.80440979 -14.69166565 168.53384399 C-15.25691452 169.00172333 -15.82216339 169.46960266 -16.40454102 169.95166016 C-17.09484406 170.53312805 -17.78514709 171.11459595 -18.49636841 171.71368408 C-19.29549652 172.37277771 -20.09462463 173.03187134 -20.91796875 173.7109375 C-30.78200181 181.93720761 -40.45361357 190.33218354 -49.85546875 199.0859375 C-50.85455891 200.01542772 -50.85455891 200.01542772 -51.8738327 200.96369553 C-67.49755964 215.62293529 -80.58647255 228.62518614 -81.87760925 250.8180542 C-81.99230634 260.40017658 -81.22375995 270.14994356 -79.42741394 279.56987 C-78.25977607 286.47283139 -78.25977607 286.47283139 -80.02635193 289.79588318 C-81.85923612 291.9490081 -83.82729563 293.80682423 -85.91796875 295.7109375 C-87.61535571 297.44171912 -89.30744076 299.17770977 -90.99536133 300.91772461 C-92.92788025 302.86445438 -94.8706293 304.8008855 -96.8125 306.73828125 C-97.85160141 307.77805772 -98.89055446 308.81798248 -99.92936707 309.85804749 C-102.09020943 312.02035335 -104.25282311 314.18086704 -106.41674805 316.34008789 C-109.19206355 319.10966377 -111.96280707 321.88376366 -114.73227406 324.65918636 C-116.86910364 326.79962159 -119.00829925 328.93767931 -121.1482296 331.07501411 C-122.17165224 332.09776971 -123.19433266 333.12126858 -124.2162571 334.14552116 C-125.63760521 335.56940042 -127.06249067 336.98974598 -128.48754883 338.40991211 C-129.29694412 339.21851181 -130.10633942 340.02711151 -130.94026184 340.86021423 C-134.11728291 343.83324668 -135.97805735 343.82679008 -140.23408508 343.78167725 C-141.36237228 343.77267899 -142.49065948 343.76368073 -143.65313721 343.75440979 C-144.89722351 343.73974167 -146.14130981 343.72507355 -147.4230957 343.70996094 C-149.42788515 343.69310124 -151.43267493 343.67626505 -153.43747175 343.66030645 C-154.86248812 343.64878131 -156.28749963 343.63664016 -157.71250594 343.62393045 C-162.9589091 343.57776058 -168.20511955 343.55245403 -173.45170593 343.53985596 C-174.21354748 343.53802142 -174.97538902 343.53618688 -175.76031667 343.53429675 C-178.90526912 343.52719901 -182.05022238 343.52089385 -185.19517767 343.51519918 C-194.11127629 343.49841422 -203.02609185 343.46088868 -211.94165039 343.35791016 C-219.02398891 343.27623687 -226.10486785 343.24108585 -233.18767709 343.25942445 C-236.93240934 343.2674225 -240.67382687 343.25282807 -244.41796303 343.1818161 C-262.14566729 342.07369564 -262.14566729 342.07369564 -277.31902599 349.46321487 C-278.83942004 351.21491569 -280.15778496 353.0140362 -281.47868347 354.91827393 C-283.91796875 357.7109375 -283.91796875 357.7109375 -287.60566711 358.23651123 C-290.91796875 357.7109375 -290.91796875 357.7109375 -292.91796875 355.7109375 C-293.34652847 352.24126345 -293.39395934 350.40394392 -291.38916016 347.48510742 C-290.68968262 346.81068604 -289.99020508 346.13626465 -289.26953125 345.44140625 C-288.5115625 344.69826172 -287.75359375 343.95511719 -286.97265625 343.18945312 C-285.76996094 342.05540039 -285.76996094 342.05540039 -284.54296875 340.8984375 C-283.74890625 340.12306641 -282.95484375 339.34769531 -282.13671875 338.54882812 C-275.08293718 331.71622445 -275.08293718 331.71622445 -271.67640305 331.70076466 C-270.26442076 331.78070431 -270.26442076 331.78070431 -268.82391357 331.86225891 C-267.20301819 331.94729172 -267.20301819 331.94729172 -265.54937744 332.03404236 C-264.35713562 332.10055496 -263.1648938 332.16706757 -261.93652344 332.2355957 C-259.33642403 332.36839288 -256.73635264 332.49911481 -254.13592529 332.62507629 C-253.44811399 332.65843444 -252.76030269 332.6917926 -252.05164862 332.7261616 C-242.35315448 333.18171774 -232.64668942 333.40041277 -222.94047165 333.6210146 C-215.07731208 333.80650444 -207.23500838 334.07538888 -199.38378906 334.5534668 C-156.82651354 337.24221382 -156.82651354 337.24221382 -119.99176216 318.49820614 C-116.76929339 315.5966607 -113.71159282 312.54780446 -110.671875 309.45703125 C-109.93968262 308.73178454 -109.93968262 308.73178454 -109.19269848 307.99188638 C-94.7457795 293.64691676 -89.45675733 280.76384824 -88.93511963 260.86274719 C-88.99024092 253.45160325 -89.63603404 246.12492546 -90.3984375 238.7578125 C-91.40685585 227.83748315 -91.40685585 227.83748315 -89.3815918 223.1706543 C-87.07182453 220.58052079 -84.74230021 218.71660342 -81.91796875 216.7109375 C-80.30671161 215.10835976 -78.72198478 213.47869243 -77.1640625 211.82421875 C-75.56380208 210.22135417 -73.96093326 208.62108953 -72.35546875 207.0234375 C-71.55689453 206.22099609 -70.75832031 205.41855469 -69.93554688 204.59179688 C-68.74928711 203.4074707 -68.74928711 203.4074707 -67.5390625 202.19921875 C-66.84224365 201.50352783 -66.1454248 200.80783691 -65.42749023 200.09106445 C-60.80721594 195.70901813 -56.08679064 191.49386068 -50.93032837 187.7492981 C-36.48252903 177.23663485 -21.58338757 165.09728041 -18.47112656 146.64565659 C-16.67623347 131.36008143 -17.37269235 115.93708123 -18.11981201 100.60314941 C-18.40015974 94.50391884 -18.48171752 88.40039101 -18.58020854 82.29605079 C-18.80835653 68.42414393 -19.2773282 54.56951464 -19.91796875 40.7109375 C-20.85511719 40.41445313 -21.79226563 40.11796875 -22.7578125 39.8125 C-29.48777797 37.46657878 -32.68119153 32.77367021 -35.91796875 26.7109375 C-38.25382251 19.70337623 -36.83608465 13.29248894 -33.91796875 6.7109375 C-30.79868472 1.62765982 -25.62093744 -2.14085515 -19.90234375 -3.9140625 C-12.55818106 -5.30193576 -6.186498 -4.15793145 0 0 Z " fill="#F2F4F6" transform="translate(713.91796875,267.2890625)"/>
<path d="M0 0 C1.16806183 -0.01197418 2.33612366 -0.02394836 3.5395813 -0.0362854 C7.4026188 -0.0684981 11.2645362 -0.06364858 15.12768555 -0.05566406 C17.13512712 -0.06044961 19.1425411 -0.06830052 21.14997166 -0.07642388 C27.4622428 -0.10155055 33.77413956 -0.10045208 40.08642578 -0.08300781 C46.58461915 -0.06550386 53.08158374 -0.09183985 59.57959491 -0.13997436 C65.16966753 -0.17983533 70.75935353 -0.19236885 76.34956044 -0.1832602 C79.68359823 -0.1780914 83.01615638 -0.18605819 86.35018349 -0.21422577 C90.07293485 -0.24149769 93.79294059 -0.22403776 97.515625 -0.1953125 C98.61044693 -0.21262421 99.70526886 -0.22993591 100.83326721 -0.24777222 C107.5577732 -0.13690104 111.06295765 1.06772992 115.81766224 5.88679695 C116.62661206 6.77379437 116.62661206 6.77379437 117.4519043 7.67871094 C118.2432225 8.42812454 119.03454071 9.17753815 119.84983826 9.94966125 C120.50412308 10.60315048 121.1584079 11.25663971 121.83251953 11.92993164 C122.58947617 12.68373611 123.3464328 13.43754059 124.12632751 14.21418762 C125.30649193 15.39738838 125.30649193 15.39738838 126.51049805 16.60449219 C127.3402565 17.43329391 128.17001495 18.26209564 129.0249176 19.11601257 C130.76312003 20.85353889 132.50007792 22.59231105 134.23583984 24.33227539 C136.90242612 27.00425912 139.57436118 29.6708115 142.24682617 32.33691406 C143.93920456 34.02995253 145.6312731 35.72330078 147.32299805 37.41699219 C148.12394394 38.21591385 148.92488983 39.01483551 149.75010681 39.83796692 C150.48499832 40.57601059 151.21988983 41.31405426 151.97705078 42.07446289 C152.62576645 42.72397415 153.27448212 43.37348541 153.94285583 44.04267883 C157.38058643 47.76968811 156.44341599 51.84151712 156.3112793 56.60449219 C156.27975483 59.4229152 156.25986611 62.24128378 156.24047852 65.05981445 C156.21501615 66.99479297 156.1682443 68.92962303 156.09887695 70.86352539 C155.51057881 84.20370667 155.51057881 84.20370667 161.78411865 95.45353699 C164.54143876 98.04855548 167.44283874 100.3851593 170.4519043 102.67871094 C171.82542708 103.86636711 173.19176925 105.06246619 174.5456543 106.27246094 C175.16053711 106.79582031 175.77541992 107.31917969 176.40893555 107.85839844 C181.66654535 112.54299915 186.51690967 117.69704217 191.46118164 122.70849609 C196.7359646 128.048421 202.01960909 133.30091411 207.73120117 138.18066406 C210.27246705 140.39309417 212.59771256 142.76779169 214.9519043 145.17871094 C218.71750931 149.00181608 222.59045139 152.62590567 226.6628418 156.12011719 C234.08882737 162.58948017 234.08882737 162.58948017 235.4519043 166.67871094 C235.54369457 169.70697453 235.5778361 172.71183557 235.56542969 175.73999023 C235.56557571 176.66701752 235.56572174 177.5940448 235.56587219 178.54916382 C235.56517483 181.61710948 235.55739066 184.68499462 235.54956055 187.75292969 C235.54769574 189.87856513 235.54627213 192.00420101 235.54527283 194.12983704 C235.54145259 199.72760197 235.53162649 205.32534101 235.52056885 210.9230957 C235.51034414 216.63394826 235.50577293 222.34480499 235.50073242 228.05566406 C235.4900038 239.26335774 235.47293327 250.47103219 235.4519043 261.67871094 C236.22018555 261.94941406 236.9884668 262.22011719 237.7800293 262.49902344 C241.85987951 264.30036081 244.49186109 267.46322662 246.2644043 271.55371094 C246.3262793 272.25496094 246.3881543 272.95621094 246.4519043 273.67871094 C246.5962793 274.91621094 246.7406543 276.15371094 246.8894043 277.42871094 C246.81998334 282.74437252 244.00708043 285.967534 240.4519043 289.67871094 C236.72272878 293.14771142 233.91819267 293.96366191 228.9519043 294.17871094 C223.12101164 293.93378184 220.19055455 292.29353924 215.9831543 288.27636719 C212.04456824 283.80169581 211.70837821 279.38449216 211.96362305 273.55761719 C212.67868089 269.34163616 214.25993401 266.50813645 217.4519043 263.67871094 C218.29553528 263.33370544 219.13916626 262.98869995 220.00836182 262.63323975 C222.86687164 260.79084734 222.86687164 260.79084734 223.10028076 256.87237549 C223.13616709 255.24991774 223.14412247 253.62670462 223.13061523 252.00390625 C223.14258942 251.11738373 223.1545636 250.23086121 223.16690063 249.31747437 C223.19916006 246.38015417 223.19425839 243.44430391 223.1862793 240.50683594 C223.1947258 238.4652251 223.20436541 236.42361888 223.21514893 234.38201904 C223.23156305 230.09793173 223.2288102 225.81436084 223.21362305 221.53027344 C223.19636946 216.0474905 223.23340916 210.56662841 223.28588486 205.08412552 C223.3190204 200.86489158 223.31955729 196.64611675 223.31073761 192.4267807 C223.31109706 190.40620534 223.32236277 188.38560081 223.344841 186.36515045 C223.37216058 183.53257038 223.35462778 180.7035873 223.32592773 177.87109375 C223.34323944 177.04070587 223.36055115 176.21031799 223.37838745 175.35476685 C223.27593472 170.61542492 222.48660634 168.21020028 219.11602783 164.79168701 C217.91575578 163.72968972 216.69436875 162.69102183 215.4519043 161.67871094 C209.3703069 156.47250759 203.68678714 150.98774506 198.08276367 145.27246094 C195.00853683 142.15603246 191.89923749 139.1556839 188.5769043 136.30371094 C182.91436666 131.42107664 177.75948424 126.03135637 172.51831055 120.70605469 C168.24608945 116.39228849 163.91086688 112.25530203 159.30493164 108.30029297 C156.41998351 105.77567828 153.71373127 103.08638213 151.0144043 100.36621094 C150.4865332 99.84220703 149.95866211 99.31820312 149.41479492 98.77832031 C145.57877447 94.93245128 145.57877447 94.93245128 144.4519043 92.67871094 C144.56429112 90.68884193 144.68489669 88.69905074 144.84980774 86.71284485 C147.06844067 64.39722737 147.06844067 64.39722737 139.41526794 44.20297241 C133.83345167 37.66886523 127.26178719 32.10060983 120.39038086 26.96655273 C116.42081872 23.87592737 113.11661337 20.50668683 109.96803284 16.58474731 C105.80266333 12.46457715 101.31018364 12.69960138 95.70263672 12.60083008 C94.63001083 12.5597966 93.55738495 12.51876312 92.45225525 12.47648621 C88.90396805 12.35322418 85.35719598 12.27816805 81.80737305 12.21386719 C79.97586417 12.17531522 79.97586417 12.17531522 78.10735512 12.13598442 C71.62716031 12.00497334 65.14771356 11.91413887 58.66650391 11.8527832 C53.34480122 11.80045407 48.03307191 11.66405036 42.71435547 11.46313477 C10.18358953 8.79627915 10.18358953 8.79627915 -18.54633236 20.91972637 C-23.29350228 25.47609348 -27.26096153 30.5634917 -30.83598328 36.07395935 C-32.28760949 38.28241577 -33.49022042 40.03754534 -35.5480957 41.67871094 C-38.6105957 41.99121094 -38.6105957 41.99121094 -41.5480957 41.67871094 C-43.5480957 39.67871094 -43.5480957 39.67871094 -43.9230957 36.30371094 C-43.5480957 32.67871094 -43.5480957 32.67871094 -41.6730957 30.24121094 C-39.5480957 28.67871094 -39.5480957 28.67871094 -37.5480957 28.67871094 C-37.30422119 28.10886475 -37.06034668 27.53901855 -36.80908203 26.9519043 C-35.3192505 24.26616927 -33.55904394 22.4639592 -31.37231445 20.30761719 C-30.12998047 19.07495117 -30.12998047 19.07495117 -28.86254883 17.81738281 C-27.9956543 16.96724609 -27.12875977 16.11710938 -26.2355957 15.24121094 C-25.38030273 14.39494141 -24.52500977 13.54867187 -23.64379883 12.67675781 C-22.04085498 11.09119678 -20.43585997 9.50770466 -18.828125 7.92700195 C-16.48191802 5.72975247 -16.48191802 5.72975247 -14.62734985 3.08061218 C-9.98528757 -0.54032154 -5.7355878 -0.03636046 0 0 Z " fill="#01C8A7" transform="translate(470.548095703125,685.3212890625)"/>
<path d="M0 0 C5.1363899 3.04257491 9.73106204 7.81818612 11.625 13.5 C12.55437706 26.8866042 12.55437706 26.8866042 8.625 32.5 C8.0475 33.36625 7.47 34.2325 6.875 35.125 C4.02139561 38.13713796 1.33587357 39.64456321 -2.375 41.5 C-3.035 41.5 -3.695 41.5 -4.375 41.5 C-4.35945572 42.28403198 -4.34391144 43.06806396 -4.32789612 43.87585449 C-4.18722506 51.29018891 -4.08085733 58.70387009 -4.0123148 66.11919403 C-3.97588986 69.9309565 -3.92654427 73.74161006 -3.84692383 77.55273438 C-3.77046833 81.23571039 -3.72892904 84.91762487 -3.7108593 88.60133362 C-3.69799483 90.00159914 -3.67287206 91.40181109 -3.6348896 92.80162048 C-3.31406834 105.12317173 -3.31406834 105.12317173 -7.5234375 110.02124023 C-8.78172698 111.20851871 -10.06517774 112.36982824 -11.375 113.5 C-12.43197822 114.58391186 -13.48111346 115.67554197 -14.52124023 116.77563477 C-15.57270019 117.83354027 -16.62688768 118.88874089 -17.68359375 119.94140625 C-18.25400894 120.51277817 -18.82442413 121.08415009 -19.41212463 121.6728363 C-20.6066122 122.86799774 -21.80233676 124.06192411 -22.99926758 125.25463867 C-24.80860933 127.05862085 -26.61254319 128.86788665 -28.41601562 130.67773438 C-33.74090671 136.00496243 -39.0403487 141.29197552 -44.83325195 146.11767578 C-46.45499729 147.5717252 -47.77070829 149.10908063 -49.125 150.8125 C-51.83344742 154.04758998 -53.6333839 155.32686839 -57.85059738 155.74609566 C-59.24987913 155.74333028 -59.24987913 155.74333028 -60.6774292 155.74050903 C-62.28857353 155.74463303 -62.28857353 155.74463303 -63.93226624 155.74884033 C-65.10542892 155.74164978 -66.27859161 155.73445923 -67.48730469 155.72705078 C-69.34623604 155.72748886 -69.34623604 155.72748886 -71.24272156 155.72793579 C-74.63710007 155.72678149 -78.03123507 155.71675359 -81.42557049 155.70278788 C-84.97431915 155.69028225 -88.52307108 155.68911015 -92.07183838 155.68673706 C-98.79014543 155.68052179 -105.50838736 155.66411036 -112.22666574 155.64403808 C-119.87593873 155.62168053 -127.52521485 155.61068601 -135.17451239 155.60064721 C-150.90804597 155.57974416 -166.64151458 155.54456729 -182.375 155.5 C-182.67825195 156.4485083 -182.98150391 157.3970166 -183.29394531 158.37426758 C-184.29288707 161.26258089 -185.15415795 162.91467409 -187.125 165.1875 C-187.59421875 165.74824219 -188.0634375 166.30898438 -188.546875 166.88671875 C-194.35844372 172.01530397 -200.29989674 172.13021547 -207.73046875 171.984375 C-212.98856343 171.28554998 -215.84505545 169.34006887 -219.375 165.5 C-220.15875 164.675 -220.9425 163.85 -221.75 163 C-225.35113251 157.45979613 -226.10911046 151.97146602 -225.375 145.5 C-223.02998047 138.4649414 -219.32896978 133.22824114 -212.91015625 129.4609375 C-206.77419782 127.13513507 -199.7273262 127.13601627 -193.6484375 129.609375 C-188.65413927 132.71619597 -185.32993285 136.44801804 -182.375 141.5 C-182.375 142.49 -182.375 143.48 -182.375 144.5 C-166.98057672 145.24309215 -151.58987387 145.75922886 -136.18042469 146.02589893 C-129.01846547 146.15479497 -121.87152679 146.35090915 -114.7175293 146.71850586 C-77.10642129 149.22438373 -77.10642129 149.22438373 -44.6518774 132.81418514 C-37.57104196 125.92284581 -31.28346406 118.37606945 -25.43998718 110.41947937 C-23.49573316 107.78334493 -21.64720839 105.80167877 -19.02104187 103.84951782 C-16.1543424 101.74075717 -16.1543424 101.74075717 -15.61550903 98.62089539 C-15.61106781 97.56610489 -15.60662659 96.51131439 -15.60205078 95.42456055 C-15.58248322 94.22369308 -15.56291565 93.02282562 -15.54275513 91.78556824 C-15.55184906 90.49894791 -15.56094299 89.21232758 -15.5703125 87.88671875 C-15.55905576 86.54862583 -15.54517221 85.21055266 -15.52877808 83.87251282 C-15.49279313 80.36241745 -15.49235929 76.85319396 -15.49945068 73.34295654 C-15.5003647 69.75647459 -15.46748967 66.1703175 -15.4375 62.58398438 C-15.38368876 55.55594026 -15.36744969 48.52823881 -15.375 41.5 C-16.3235083 41.19747314 -17.2720166 40.89494629 -18.24926758 40.58325195 C-23.48897543 38.76738194 -27.05502028 35.34797161 -30.25 30.875 C-32.8680734 25.34795616 -33.20678879 19.51823655 -32.375 13.5 C-29.91802927 7.47948393 -25.5268704 2.88675502 -20 -0.46484375 C-13.665777 -2.96271443 -6.25054516 -2.69440976 0 0 Z " fill="#F6F6F8" transform="translate(577.375,374.5)"/>
<path d="M0 0 C2.90247142 1.75548364 5.08641275 3.14599735 6.83560181 6.10292053 C8.48090804 8.29542325 8.48090804 8.29542325 11.29257202 8.40110779 C12.3772879 8.34664993 13.46200378 8.29219208 14.57958984 8.23608398 C16.42960098 8.16398964 16.42960098 8.16398964 18.31698608 8.09043884 C18.9774934 8.05718946 19.63800072 8.02394009 20.31852341 7.98968315 C23.86027127 7.82611935 27.40464483 7.77704858 30.94921875 7.70507812 C35.4418797 7.6047314 39.92760226 7.47430054 44.41503906 7.23168945 C59.69788855 6.44101251 74.03031161 6.18444484 86.14453125 16.99609375 C92.17160612 23.14367481 95.00584787 28.55393622 95.08206272 37.06245613 C94.97657599 41.47289887 94.76118508 45.87273802 94.515625 50.27734375 C93.80002333 63.43602089 94.35616654 72.84117339 103.08373451 83.20464516 C109.50840322 90.31475661 116.62178891 96.71769222 123.83483887 103.00976562 C127.56187906 106.30309364 131.17267072 109.71931753 134.79492188 113.12695312 C140.61990042 118.58639306 146.4998113 123.97495421 152.49659729 129.24559021 C158.45172794 134.53090707 158.45172794 134.53090707 158.84597778 138.35832214 C158.84153656 139.27543472 158.83709534 140.1925473 158.83251953 141.13745117 C158.83229294 142.69872993 158.83229294 142.69872993 158.83206177 144.29154968 C158.8217392 145.41350235 158.81141663 146.53545502 158.80078125 147.69140625 C158.79795135 148.84135574 158.79512146 149.99130524 158.79220581 151.17610168 C158.78099708 154.85448546 158.75589099 158.53262712 158.73046875 162.2109375 C158.72043986 164.70247045 158.71131385 167.1940072 158.703125 169.68554688 C158.68105548 175.79825991 158.64757099 181.91083141 158.60546875 188.0234375 C159.39099121 188.16297852 160.17651367 188.30251953 160.98583984 188.44628906 C166.04614557 189.56115977 169.50099721 193.51399307 172.48046875 197.5859375 C175.22074184 203.52319587 175.51299398 209.88371592 173.41796875 216.0859375 C170.87754161 222.16649691 167.07673925 226.60155085 161.05078125 229.328125 C154.77397304 231.11290433 148.1174679 231.1652553 142.16796875 228.4609375 C135.58555057 222.19961289 131.37949391 217.22730565 131.10546875 207.7734375 C131.21224548 201.03887666 132.97806033 196.88169169 137.60546875 192.0234375 C140.38711015 189.62869107 143.10199168 188.19126319 146.60546875 187.0234375 C146.78347604 180.45850325 146.90575727 173.89419461 146.98999023 167.32739258 C147.02511574 165.09538518 147.07282832 162.86353797 147.13354492 160.63208008 C147.21881019 157.41707808 147.25823669 154.20421056 147.2890625 150.98828125 C147.3251915 149.99634262 147.3613205 149.00440399 147.39854431 147.98240662 C147.40149389 142.7358864 147.00370339 139.80254579 143.22241211 135.99975586 C142.03173968 134.989726 140.82708089 133.99581856 139.60546875 133.0234375 C138.76242187 132.17007813 137.919375 131.31671875 137.05078125 130.4375 C134.81404052 128.22934382 132.5230266 126.09588462 130.20263672 123.97631836 C118.22203625 112.99947957 106.86328884 101.3712641 95.41357422 89.84741211 C93.6177777 88.04146721 91.81051644 86.24680514 89.98876953 84.46704102 C89.20228027 83.66065186 88.41579102 82.8542627 87.60546875 82.0234375 C86.84476074 81.28472412 86.08405273 80.54601074 85.30029297 79.78491211 C82.83819667 75.77327696 83.25702269 72.43885589 83.48828125 67.83984375 C83.52255026 66.0059133 83.55369678 64.17192236 83.58203125 62.33789062 C83.64548533 59.47196252 83.72916849 56.61253568 83.86914062 53.74926758 C84.31883243 43.79637719 84.33595478 34.58769606 77.43359375 26.76171875 C68.95356184 18.61888575 57.4778976 19.27964767 46.40234375 19.4375 C44.36600644 19.4847643 42.33005872 19.54037458 40.29400635 19.59857178 C36.8278185 19.68233277 33.36157775 19.68507354 29.89453125 19.6953125 C23.12938299 19.72689423 16.36833058 19.84616355 9.60546875 20.0234375 C9.48558594 20.94769531 9.36570312 21.87195313 9.2421875 22.82421875 C8.39574327 27.07721153 6.65030094 28.97860531 3.60546875 32.0234375 C-2.19539722 35.89068148 -7.91855838 35.59469238 -14.51953125 34.4609375 C-19.94928681 32.97523667 -22.74265799 28.761474 -25.53515625 24.1328125 C-27.24461333 19.93687241 -26.91033365 15.45933812 -26.39453125 11.0234375 C-24.03918689 6.13156844 -20.67718545 3.21264808 -16.39453125 0.0234375 C-11.12799272 -1.73207534 -5.21130403 -2.12532791 0 0 Z " fill="#F5F5F7" transform="translate(491.39453125,718.9765625)"/>
<path d="M0 0 C0.75588567 0.02880674 1.51177134 0.05761348 2.29056263 0.08729315 C21.99941488 0.8521598 41.62698739 2.24168244 61.25 4.25 C60.59 5.24 59.93 6.23 59.25 7.25 C58.96337567 11.39776273 58.96337567 11.39776273 60.25 15.25 C18.67 15.25 -22.91 15.25 -65.75 15.25 C-66.41 16.57 -67.07 17.89 -67.75 19.25 C-69.47521536 21.43337784 -71.22202633 23.55104052 -73.03930664 25.6550293 C-73.58314656 26.28785607 -74.12698648 26.92068285 -74.6873064 27.5726862 C-81.86993696 35.87103909 -89.28508272 43.95171328 -96.8125 51.9375 C-97.53383244 52.70457905 -98.25516487 53.4716581 -98.99835587 54.26198196 C-130.26017276 87.28941444 -130.26017276 87.28941444 -153.51786804 88.65559387 C-163.01853453 88.71738737 -172.77735056 87.79160446 -182.03982544 85.62384033 C-184.87737532 85.05253965 -186.91119329 84.65936512 -189.75 85.25 C-191.89916492 87.60961882 -193.16959473 89.89257085 -194.51704407 92.78004456 C-196.22330928 96.19817082 -198.39627736 97.53746078 -201.75 99.25 C-202.4925 99.6625 -203.235 100.075 -204 100.5 C-210.56221497 102.28969499 -216.89729674 102.04463877 -222.86328125 98.65625 C-228.15390254 94.71292979 -233.13828608 89.2614317 -234.15625 82.5859375 C-234.40742432 74.65301534 -232.88882509 69.3761976 -227.75 63.25 C-221.64804403 57.66297703 -216.08243771 56.83477808 -208.05078125 56.90625 C-201.817911 57.55535365 -197.93568751 60.7413587 -193.8125 65.25 C-191.7959631 68.18314458 -191.29879224 69.83015782 -190.75 73.25 C-174.4266679 77.50661304 -153.19134721 81.16209484 -137.75 72.25 C-132.25561912 67.98290287 -127.99114976 62.4642194 -123.6953125 57.04296875 C-122.80282681 55.93092764 -122.80282681 55.93092764 -121.8923111 54.79642105 C-119.39955571 51.68930784 -116.91858081 48.57293513 -114.44112778 45.45361137 C-81.13684783 3.60003668 -51.05675642 -1.99732289 0 0 Z " fill="#F8F8F9" transform="translate(491.75,554.75)"/>
<path d="M0 0 C7.49306298 4.91658391 12.3012356 11.45561008 15 20 C16.4983796 30.39573446 14.58610378 39.56961427 8.8125 48.3125 C3.51195686 53.37746345 -3.3605807 59 -11 59 C-11 97.61 -11 136.22 -11 176 C-14.3 176 -17.6 176 -21 176 C-22.84884245 174.15115755 -22.127764 171.12497809 -22.12939453 168.65234375 C-22.13198902 167.65256012 -22.13198902 167.65256012 -22.13463593 166.63257885 C-22.13901827 164.4008613 -22.13603637 162.16921863 -22.1328125 159.9375 C-22.13382642 158.36721269 -22.13516487 156.79692557 -22.1368103 155.22663879 C-22.13951447 151.0194677 -22.13504549 146.81233333 -22.12857056 142.60516739 C-22.12501694 140.01236104 -22.12338603 137.41956018 -22.12231445 134.82675171 C-22.10929306 109.54071563 -21.90147147 84.272369 -21 59 C-22.10537109 58.85828369 -23.21074219 58.71656738 -24.34960938 58.57055664 C-32.16014819 57.34976817 -37.73517209 51.82180515 -42.625 45.890625 C-45.04183274 42.56747999 -46 40.08650336 -46 36 C-46.66 36 -47.32 36 -48 36 C-48.81482416 24.10960304 -48.12287082 15.09086754 -39.94921875 5.625 C-28.69137993 -5.25291176 -13.91058066 -7.35213873 0 0 Z " fill="#09CEAA" transform="translate(798,366)"/>
<path d="M0 0 C7.07617789 5.77381386 12.91262476 13.02847401 14.6875 22.1875 C15.66386711 33.71183305 13.85644518 44.37283273 6.30859375 53.4453125 C-1.00733475 61.30773205 -9.23974527 65.36733624 -20.00390625 66.4609375 C-30.09600851 66.81793704 -38.21784465 64.01322428 -46.125 57.6875 C-53.49088644 50.54970112 -58.19997088 41.54844686 -58.4453125 31.23046875 C-57.88545534 18.40315316 -55.27536089 10.55995642 -45.75 1.8125 C-32.45762148 -9.70282257 -14.42344353 -10.17002729 0 0 Z " fill="#02CCA7" transform="translate(798.3125,554.8125)"/>
<path d="M0 0 C4.51498674 2.5112944 8.53425925 5.067733 10.77734375 9.8515625 C12.25742043 15.37298332 12.00014823 20.81111875 10.265625 26.21875 C7.76182485 29.69176311 4.87563309 32.49565414 1.328125 34.90625 C0.668125 34.90625 0.008125 34.90625 -0.671875 34.90625 C-0.65633072 35.66522583 -0.64078644 36.42420166 -0.62477112 37.20617676 C-0.48407537 44.38504914 -0.37772038 51.56324625 -0.3091898 58.74314117 C-0.27277108 62.43385483 -0.22343807 66.12342244 -0.14379883 69.81347656 C-0.06731936 73.37974677 -0.02579938 76.94492021 -0.0077343 80.51194763 C0.0113535 82.52399929 0.0659339 84.53561401 0.12120056 86.54699707 C0.12557498 96.81195747 0.12557498 96.81195747 -3.72290039 101.3840332 C-5.00143607 102.59914775 -6.31876301 103.77477097 -7.671875 104.90625 C-8.29794144 105.46263153 -8.92400787 106.01901306 -9.56904602 106.59225464 C-11.53030875 108.30042545 -13.53278162 109.95053712 -15.5390625 111.60546875 C-34.21366431 126.69467211 -34.21366431 126.69467211 -42.8125 148.0234375 C-43.0888925 152.96354288 -42.85009204 157.79901484 -42.37841797 162.71948242 C-42.27361115 163.85155624 -42.27361115 163.85155624 -42.16668701 165.00650024 C-41.94459131 167.05400753 -41.63002387 169.09088702 -41.30908203 171.12524414 C-41.84303489 176.69006783 -44.78835615 179.11158333 -48.671875 182.90625 C-49.89508615 184.17727261 -51.11798887 185.44859214 -52.34057617 186.72021484 C-53.62921808 188.02196425 -54.92073758 189.32087014 -56.21484375 190.6171875 C-56.90572586 191.31139801 -57.59660797 192.00560852 -58.3084259 192.72085571 C-59.75501278 194.17246394 -61.20291893 195.62275857 -62.65209961 197.07177734 C-64.86926444 199.29114928 -67.0782811 201.51842842 -69.28710938 203.74609375 C-70.70003157 205.16194676 -72.11342631 206.57732838 -73.52734375 207.9921875 C-74.18470016 208.65672943 -74.84205658 209.32127136 -75.51933289 210.00595093 C-76.13710098 210.6206424 -76.75486908 211.23533386 -77.39135742 211.86865234 C-77.9298381 212.40855804 -78.46831879 212.94846375 -79.02311707 213.50473022 C-82.56981878 216.51958916 -85.47520298 217.15566442 -90.0881958 217.14675903 C-91.18753448 217.14950836 -92.28687317 217.15225769 -93.41952515 217.15509033 C-94.62074005 217.14789978 -95.82195496 217.14070923 -97.05957031 217.13330078 C-98.96239273 217.13373886 -98.96239273 217.13373886 -100.90365601 217.13418579 C-104.37857167 217.13475949 -107.8533492 217.12300241 -111.32823277 217.10903788 C-114.96106325 217.09653342 -118.59389692 217.09536024 -122.22674561 217.09298706 C-129.10442378 217.08677145 -135.98203835 217.07035955 -142.85968852 217.05028808 C-150.69033676 217.02793159 -158.52098804 217.01693628 -166.35166025 217.00689721 C-182.45843573 216.98599339 -198.56514725 216.95081585 -214.671875 216.90625 C-214.671875 216.57625 -214.671875 216.24625 -214.671875 215.90625 C-173.421875 215.57625 -132.171875 215.24625 -89.671875 214.90625 C-90.001875 214.57625 -90.331875 214.24625 -90.671875 213.90625 C-91.22436523 211.2890625 -91.22436523 211.2890625 -90.671875 207.90625 C-88.37914345 205.16229764 -85.60250002 203.02702508 -82.83203125 200.78125 C-64.31976172 186.56911933 -64.31976172 186.56911933 -53.51318359 167.14257812 C-53.2742967 162.430064 -53.78828897 157.82067771 -54.421875 153.15625 C-56.45927527 137.76690703 -56.45927527 137.76690703 -51.99682617 131.58624268 C-46.4298112 125.56597579 -39.97213291 120.44412788 -33.671875 115.21875 C-21.64959128 105.22336879 -12.44456992 96.50956266 -10.94451904 80.31856346 C-10.50317742 74.17018687 -10.46830033 68.0650644 -10.671875 61.90625 C-10.69409119 61.23244419 -10.71630737 60.55863838 -10.73919678 59.86441422 C-11.0469 51.50994196 -11.6978693 43.20844008 -12.671875 34.90625 C-13.62344482 34.61347168 -14.57501465 34.32069336 -15.55541992 34.01904297 C-18.94546568 32.80855895 -19.96012024 31.92304252 -21.984375 29.03125 C-22.47550781 28.35320312 -22.96664062 27.67515625 -23.47265625 26.9765625 C-25.91631671 22.75786529 -25.99865056 18.7261895 -25.671875 13.90625 C-23.8195361 7.42306385 -20.11976815 3.79446406 -14.671875 -0.09375 C-9.56372639 -1.7964662 -5.05623964 -2.0698057 0 0 Z " fill="#08C7A9" transform="translate(640.671875,354.09375)"/>
<path d="M0 0 C7.27880911 4.1968856 12.08969488 10.60895484 14.703125 18.55859375 C14.84022718 21.20466584 14.89375472 23.73328388 14.828125 26.37109375 C14.81910156 27.06396484 14.81007813 27.75683594 14.80078125 28.47070312 C14.77738657 30.1668177 14.74152141 31.86275246 14.703125 33.55859375 C14.043125 33.55859375 13.383125 33.55859375 12.703125 33.55859375 C12.6103125 34.82703125 12.6103125 34.82703125 12.515625 36.12109375 C11.60638904 39.96786127 10.17682712 41.89064596 7.6640625 44.84765625 C6.50979842 46.49561012 6.50979842 46.49561012 6.96044922 48.33398438 C7.87575587 51.07569187 9.1699808 53.36406669 10.625 55.86328125 C11.23158447 56.91016113 11.83816895 57.95704102 12.46313477 59.03564453 C13.11983154 60.15696777 13.77652832 61.27829102 14.453125 62.43359375 C15.13698581 63.60900959 15.82049383 64.78463074 16.50366211 65.96044922 C20.72703012 73.21947339 24.99087799 80.45473163 29.265625 87.68359375 C29.78044434 88.5559668 30.29526367 89.42833984 30.82568359 90.32714844 C33.74728001 95.27278053 36.69310438 100.2025822 39.66015625 105.12109375 C40.96640971 107.30843619 42.27240499 109.49593283 43.578125 111.68359375 C44.20404541 112.70984863 44.82996582 113.73610352 45.47485352 114.79345703 C46.04260498 115.74978027 46.61035645 116.70610352 47.1953125 117.69140625 C47.70433105 118.53590332 48.21334961 119.38040039 48.73779297 120.25048828 C49.703125 122.55859375 49.703125 122.55859375 49.54345703 124.75341797 C48.15629699 127.73327309 45.63039511 128.36378962 42.703125 129.55859375 C42.043125 129.55859375 41.383125 129.55859375 40.703125 129.55859375 C40.34395996 128.89794922 39.98479492 128.23730469 39.61474609 127.55664062 C28.98260178 108.02835232 18.08601833 88.6650538 6.51635742 69.67504883 C4.703125 66.55859375 4.703125 66.55859375 3.0246582 63.11987305 C0.36085866 57.2672246 0.36085866 57.2672246 -4.59106445 53.66625977 C-7.2378805 53.4807146 -9.6053265 53.64700029 -12.234375 53.99609375 C-20.36958346 54.75014849 -26.1982356 54.66938743 -32.90625 49.578125 C-39.46077846 42.82026263 -44.33420627 36.10068798 -44.546875 26.37109375 C-44.38208852 17.21795363 -40.78601735 9.97550075 -34.296875 3.55859375 C-23.18013315 -4.48797053 -12.63691905 -5.8387859 0 0 Z " fill="#07CEA9" transform="translate(933.296875,461.44140625)"/>
<path d="M0 0 C8.30666391 5.08506802 15.44485184 11.32415074 18.58203125 20.8671875 C20.3825627 29.97400771 19.94047359 39.23774855 15.0546875 47.2578125 C9.12403451 55.48342286 2.60154208 60.07552764 -6.9453125 63.2578125 C-17.34300407 64.27567822 -25.17220431 63.42412987 -33.9453125 57.2578125 C-41.27307653 51.18507988 -45.53126328 42.48540504 -46.4609375 33.05859375 C-46.98334422 24.01624483 -45.98742942 17.36313454 -39.9453125 10.2578125 C-39.07519531 9.16726563 -39.07519531 9.16726563 -38.1875 8.0546875 C-28.70567203 -2.657001 -12.99056431 -6.80458131 0 0 Z " fill="#03CDA9" transform="translate(1008.9453125,593.7421875)"/>
<path d="M0 0 C3.79588866 0.54226981 5.47211993 2.20127563 8 5 C6.57577645 9.72151685 3.80654104 12.50967248 0.3125 15.8125 C-0.78697372 16.88094543 -1.88464007 17.95125393 -2.98046875 19.0234375 C-3.50688965 19.53745117 -4.03331055 20.05146484 -4.57568359 20.58105469 C-6.8888764 22.88552444 -8.99534083 25.34608344 -11.11328125 27.828125 C-13.58037232 30.66808905 -16.13167081 33.42770728 -18.6875 36.1875 C-19.20111084 36.74228027 -19.71472168 37.29706055 -20.24389648 37.86865234 C-21.30066172 39.00937616 -22.3577124 40.1498356 -23.41503906 41.29003906 C-24.96310422 42.96019438 -26.50936334 44.63199599 -28.0546875 46.3046875 C-28.80226318 47.11353394 -28.80226318 47.11353394 -29.56494141 47.9387207 C-30.55870068 49.0162383 -31.55058346 50.09548972 -32.54052734 51.17651367 C-35.06494941 53.92947907 -37.61721532 56.64340556 -40.234375 59.30859375 C-40.7512085 59.84476318 -41.26804199 60.38093262 -41.80053711 60.93334961 C-43.22843289 62.41289219 -44.67044265 63.8787758 -46.11328125 65.34375 C-48.27961008 67.81972964 -48.27961008 67.81972964 -47.890625 70.6640625 C-47.00467362 73.14349004 -47.00467362 73.14349004 -45.4375 75.875 C-42.55568946 82.41283885 -42.76120566 90.99685903 -44.84375 97.7265625 C-48.26202516 104.44763055 -54.6423506 110.94266875 -61.83203125 113.55859375 C-70.21673493 115.26574963 -78.40528766 114.96145841 -85.87890625 110.6171875 C-89.4273016 107.9117811 -91.75114099 104.82231813 -94 101 C-94.61875 99.989375 -95.2375 98.97875 -95.875 97.9375 C-98.41414648 91.22799778 -98.32281345 82.70193947 -95.93359375 76.015625 C-91.56464131 68.15865331 -85.04827846 62.944322 -76.4296875 60.39453125 C-70.82614842 59.48463182 -65.13489362 60.34310965 -59.75 62 C-56.37309658 62 -55.92297762 61.36044841 -53.5625 59.0625 C-52.35460431 57.72649416 -51.16699967 56.37187295 -50 55 C-49.50242187 54.43152344 -49.00484375 53.86304688 -48.4921875 53.27734375 C-47.38983337 52.01711478 -46.29269441 50.75231532 -45.19921875 49.484375 C-41.67702285 45.5054823 -38.02720132 41.64666328 -34.39404297 37.76928711 C-30.75918695 33.88849584 -27.14697257 29.98988176 -23.5625 26.0625 C-20.42957665 22.63075832 -17.27587566 19.22236425 -14.08984375 15.83984375 C-13.41300537 15.12111084 -12.73616699 14.40237793 -12.03881836 13.66186523 C-10.70683045 12.24948912 -9.37308296 10.8387698 -8.03735352 9.42993164 C-7.42690186 8.7827417 -6.8164502 8.13555176 -6.1875 7.46875 C-5.37345703 6.60926758 -5.37345703 6.60926758 -4.54296875 5.73242188 C-2.90927031 3.89813008 -1.44703107 1.98369275 0 0 Z " fill="#05CCA8" transform="translate(847,782)"/>
<path d="M0 0 C1.39123744 0.71943269 2.76829563 1.4673901 4.125 2.25 C5.176875 2.848125 6.22875 3.44625 7.3125 4.0625 C12.66169943 8.22298845 16.51554774 12.9601642 19.125 19.25 C19.43743068 21.94084443 19.6028879 24.3206156 19.5625 27 C19.55492676 27.70374756 19.54735352 28.40749512 19.53955078 29.13256836 C19.2816295 37.34180742 16.81079921 44.61636451 11.0546875 50.64453125 C3.13261852 57.23556435 -5.02152304 59.4015696 -15.09765625 58.76171875 C-23.38303844 57.63929366 -29.24610966 54.01070121 -34.40234375 47.46484375 C-39.85669572 39.26161414 -41.17354639 31.01148664 -39.875 21.25 C-38.6636109 17.5562562 -37.03214759 14.47380344 -34.875 11.25 C-34.49085938 10.66605469 -34.10671875 10.08210937 -33.7109375 9.48046875 C-26.03841424 -0.82785332 -11.85050917 -5.10174462 0 0 Z " fill="#04CDA8" transform="translate(887.875,728.75)"/>
<path d="M0 0 C6.26758451 3.18877107 11.97906525 8.77998611 15.10546875 15.09765625 C15.73051299 17.16511028 15.9875807 19.04076381 16.1640625 21.1953125 C16.31875 22.69964844 16.31875 22.69964844 16.4765625 24.234375 C16.93988866 32.47771954 15.40992608 37.80300192 10.1640625 44.1953125 C5.06357307 49.80703979 -0.3628814 52.67919064 -7.8828125 53.546875 C-16.50346983 53.93136441 -23.06035076 52.35203271 -29.64453125 46.62109375 C-35.28887658 40.58262954 -38.04018667 33.99758159 -38.3984375 25.7578125 C-38.11084748 18.04680519 -35.95074887 12.49302205 -30.640625 6.87109375 C-21.77027319 -1.28201839 -11.75004519 -3.33403486 0 0 Z " fill="#04CCA7" transform="translate(719.8359375,713.8046875)"/>
<path d="M0 0 C8.15739074 0.56582402 16.15564487 1.54330176 24.21875 2.890625 C25.34753571 3.07552994 26.47632141 3.26043488 27.63931274 3.45094299 C31.26037935 4.04567187 34.88022188 4.64748275 38.5 5.25 C40.9972057 5.66251926 43.49443887 6.07487223 45.99169922 6.48706055 C64.2205604 9.50384184 82.44477836 12.54904886 100.58203125 16.08203125 C101.47784912 16.25645752 102.37366699 16.43088379 103.29663086 16.6105957 C105.01509584 16.9453286 106.73336845 17.28105112 108.45141602 17.61791992 C115.68102185 19.00600994 122.94767577 20.04767564 130.25170898 20.96142578 C131.07743408 21.0695459 131.90315918 21.17766602 132.75390625 21.2890625 C133.47908447 21.37881348 134.2042627 21.46856445 134.95141602 21.56103516 C137 22 137 22 141 24 C140.01 28.455 140.01 28.455 139 33 C127.71413403 31.97540241 116.55089791 30.36174196 105.375 28.5 C103.43729736 28.17962769 103.43729736 28.17962769 101.46044922 27.8527832 C91.22200091 26.12148679 91.22200091 26.12148679 86.56640625 24.90625 C82.89400869 23.97306683 79.32317449 23.44570957 75.5625 23 C71.57391138 22.52627579 67.68560451 21.96076882 63.77734375 21.046875 C58.23247518 19.77140815 52.63184218 19.03293378 47 18.25 C30.91789 15.95012558 14.96521451 12.9913234 -1 10 C-0.67 6.7 -0.34 3.4 0 0 Z " fill="#0CCFAA" transform="translate(818,590)"/>
<path d="M0 0 C2.24459496 1.54346073 2.97977389 2.66306888 3.81640625 5.24902344 C3.66552734 7.20166016 3.66552734 7.20166016 2.81640625 9.24902344 C0.70947266 10.73779297 0.70947266 10.73779297 -2.08203125 12.13183594 C-3.10893066 12.65398682 -4.13583008 13.1761377 -5.19384766 13.71411133 C-6.30421387 14.26188232 -7.41458008 14.80965332 -8.55859375 15.37402344 C-10.8661251 16.54151858 -13.17341486 17.70949134 -15.48046875 18.87792969 C-16.62451172 19.45172363 -17.76855469 20.02551758 -18.94726562 20.61669922 C-23.26378902 22.79384734 -27.53866027 25.04476289 -31.80859375 27.31152344 C-36.7622923 29.92841129 -41.72227813 32.53232237 -46.6953125 35.11230469 C-56.43349551 40.16668495 -66.12833535 45.28102254 -75.74609375 50.56152344 C-88.90460564 57.75832897 -88.90460564 57.75832897 -94.18359375 60.49902344 C-95.21484375 61.04042969 -96.24609375 61.58183594 -97.30859375 62.13964844 C-100.51314543 63.3761874 -102.77790427 63.6166831 -106.18359375 63.24902344 C-108.18359375 61.24902344 -108.18359375 61.24902344 -108.30859375 58.12402344 C-108.26734375 57.17527344 -108.22609375 56.22652344 -108.18359375 55.24902344 C-107.60206543 54.94834961 -107.02053711 54.64767578 -106.42138672 54.33789062 C-95.82425508 48.85168238 -85.25752904 43.32569854 -74.80859375 37.56152344 C-61.98903804 30.50395204 -48.94736204 23.87960423 -35.9276123 17.20195007 C-30.33117606 14.32962931 -24.74999029 11.42918833 -19.18359375 8.49902344 C-18.48016846 8.1295459 -17.77674316 7.76006836 -17.05200195 7.37939453 C-16.06526489 6.85853271 -16.06526489 6.85853271 -15.05859375 6.32714844 C-14.43210937 5.99908203 -13.805625 5.67101562 -13.16015625 5.33300781 C-11.69531501 4.52966108 -10.25588224 3.67960582 -8.83203125 2.80566406 C-8.04054688 2.32806641 -7.2490625 1.85046875 -6.43359375 1.35839844 C-5.716875 0.90948242 -5.00015625 0.46056641 -4.26171875 -0.00195312 C-2.18359375 -0.75097656 -2.18359375 -0.75097656 0 0 Z " fill="#0ACEAA" transform="translate(730.18359375,599.7509765625)"/>
<path d="M0 0 C4.25160793 3.64706694 6.52740203 8.16592712 9.1875 13 C14.01339259 21.60961624 19.03635389 30.08225556 24.1875 38.5 C31.2295905 50.02298737 38.10995405 61.63262222 44.91326904 73.29795837 C45.25513245 73.8841243 45.59699585 74.47029022 45.94921875 75.07421875 C46.2873761 75.65422134 46.62553345 76.23422394 46.97393799 76.83180237 C49.28026089 80.78229667 51.61197285 84.7169253 53.95703125 88.64453125 C54.87307129 90.18101318 54.87307129 90.18101318 55.80761719 91.74853516 C56.94925943 93.66048413 58.09426613 95.57042953 59.24316406 97.47802734 C59.74170898 98.31414551 60.24025391 99.15026367 60.75390625 100.01171875 C61.19033447 100.73834717 61.6267627 101.46497559 62.07641602 102.21362305 C63 104 63 104 63 106 C57.70588235 110 57.70588235 110 54 110 C52.30517578 107.68701172 52.30517578 107.68701172 50.4453125 104.4296875 C50.10772415 103.84606445 49.7701358 103.26244141 49.4223175 102.66113281 C48.31290953 100.73814421 47.21920729 98.80667156 46.125 96.875 C45.35544865 95.5359304 44.58468635 94.19755603 43.81274414 92.85986328 C42.25911546 90.16567072 40.71041128 87.46874701 39.16552734 84.76953125 C36.30337238 79.77671144 33.37536822 74.82355344 30.4375 69.875 C29.39179165 68.10815307 28.34622077 66.34122476 27.30078125 64.57421875 C26.77049316 63.67880371 26.24020508 62.78338867 25.69384766 61.86083984 C23.85067087 58.74778917 22.00932296 55.63366028 20.16796875 52.51953125 C18.82044187 50.24211095 17.47278411 47.96476808 16.125 45.6875 C15.46234131 44.56722412 14.79968262 43.44694824 14.11694336 42.29272461 C10.65281148 36.445035 7.16854262 30.61098177 3.6484375 24.796875 C2.94513752 23.63322679 2.24184955 22.46957131 1.53857422 21.3059082 C0.20292693 19.09897101 -1.13645759 16.89429029 -2.47998047 14.69213867 C-3.07439941 13.70963135 -3.66881836 12.72712402 -4.28125 11.71484375 C-4.80783203 10.84980225 -5.33441406 9.98476074 -5.87695312 9.09350586 C-7 7 -7 7 -7 5 C-5.46875 3.7109375 -5.46875 3.7109375 -3.5 2.375 C-2.8503125 1.92898438 -2.200625 1.48296875 -1.53125 1.0234375 C-1.0259375 0.68570313 -0.520625 0.34796875 0 0 Z " fill="#0AD0A9" transform="translate(801,618)"/>
<path d="M0 0 C3.37503669 1.1858237 5.64722731 2.27573689 8 5 C6.71104283 7.81351786 5.33731495 9.9325707 3.20703125 12.171875 C2.66280518 12.7496167 2.1185791 13.3273584 1.55786133 13.92260742 C0.98189209 14.52564697 0.40592285 15.12868652 -0.1875 15.75 C-1.37583379 17.01093348 -2.56334163 18.27264591 -3.75 19.53515625 C-4.3171875 20.13730957 -4.884375 20.73946289 -5.46875 21.35986328 C-7.79839456 23.85516815 -10.03180907 26.42767949 -12.26171875 29.01171875 C-14.47256489 31.54052928 -16.73596443 34.01872564 -19 36.5 C-21.84524228 39.61907011 -24.6719958 42.74755391 -27.4375 45.9375 C-30.39884185 49.34689357 -33.44180032 52.67768307 -36.5 56 C-43.06982211 63.14762044 -49.35979472 70.33380738 -55.203125 78.09375 C-56.09257813 79.03734375 -56.09257813 79.03734375 -57 80 C-60 80 -60 80 -62.75 77.75 C-65 75 -65 75 -64.80908203 73.02636719 C-63.92082119 70.80169459 -62.9600208 69.54975788 -61.3046875 67.828125 C-60.7573999 67.250625 -60.2101123 66.673125 -59.64624023 66.078125 C-59.06173096 65.47484375 -58.47722168 64.8715625 -57.875 64.25 C-56.67504059 62.98507721 -55.47581447 61.71945837 -54.27734375 60.453125 C-53.41665283 59.54916992 -53.41665283 59.54916992 -52.53857422 58.62695312 C-48.65764903 54.52309951 -45.02172945 50.20616191 -41.37109375 45.8984375 C-35.56644368 39.06455307 -29.64378962 32.38297015 -23.51416016 25.83837891 C-20.16721976 22.26432108 -16.88895317 18.64708829 -13.6875 14.94140625 C-4.66677983 4.5634018 -4.66677983 4.5634018 0 0 Z " fill="#0BCEAC" transform="translate(966,654)"/>
<path d="M0 0 C3.25249847 0.64901939 5.69003244 1.83021143 8.53515625 3.51953125 C9.41695557 4.04095703 10.29875488 4.56238281 11.20727539 5.09960938 C12.14949951 5.66486328 13.09172363 6.23011719 14.0625 6.8125 C15.04404053 7.39708984 16.02558105 7.98167969 17.03686523 8.58398438 C24.84314788 13.25528205 32.54651887 18.07756201 40.21875 22.96484375 C45.30821856 26.20484333 50.43218875 29.38768645 55.5625 32.5625 C56.42907227 33.10124756 57.29564453 33.63999512 58.18847656 34.19506836 C62.53844418 36.89242286 66.90745982 39.54492128 71.328125 42.125 C72.16786865 42.62056396 73.0076123 43.11612793 73.87280273 43.62670898 C75.46400925 44.56315305 77.06225478 45.48776769 78.66821289 46.39868164 C80.80078125 47.66015625 80.80078125 47.66015625 84 50 C84 54 84 54 82.375 56.3125 C80 58 80 58 77.37890625 57.9296875 C72.83987009 56.68079663 69.45880623 54.40226533 65.5625 51.8125 C63.86060385 50.70903989 62.15742275 49.60755969 60.453125 48.5078125 C59.56173828 47.93063477 58.67035156 47.35345703 57.75195312 46.75878906 C53.15468147 43.82064632 48.48268219 41.00774517 43.8125 38.1875 C35.58788837 33.2044062 27.40296865 28.16200338 19.25 23.0625 C18.28682861 22.46010498 17.32365723 21.85770996 16.33129883 21.23706055 C14.48020078 20.07709475 12.63203798 18.91242919 10.78710938 17.74267578 C8.82575862 16.51631614 6.84592622 15.3192684 4.85351562 14.14404297 C3.34047852 13.23549561 3.34047852 13.23549561 1.796875 12.30859375 C0.41773926 11.49926392 0.41773926 11.49926392 -0.98925781 10.67358398 C-1.65280273 10.12130127 -2.31634766 9.56901855 -3 9 C-3 4.72290301 -2.29379749 3.44069624 0 0 Z " fill="#0ACEA8" transform="translate(814,409)"/>
<path d="M0 0 C5 5.34883721 5 5.34883721 5 8 C3.14257812 9.52124023 3.14257812 9.52124023 0.53125 11.30859375 C-0.42354248 11.96706299 -1.37833496 12.62553223 -2.36206055 13.30395508 C-3.39758057 14.0080249 -4.43310059 14.71209473 -5.5 15.4375 C-6.55936768 16.16541748 -7.61873535 16.89333496 -8.71020508 17.64331055 C-10.84084163 19.1064954 -12.97338992 20.56690063 -15.10791016 22.02441406 C-17.44546823 23.62119947 -19.77806141 25.22442508 -22.10546875 26.8359375 C-30.8449624 32.88337073 -39.64442485 38.84339717 -48.4375 44.8125 C-49.04250336 45.22327789 -49.64750671 45.63405579 -50.27084351 46.05728149 C-57.16099884 50.73433687 -64.05993758 55.39714073 -71 60 C-74.29374888 58.46564493 -76.15115494 57.21115194 -78 54 C-76.88856564 50.66569692 -76.41880827 50.32181337 -73.625 48.4609375 C-72.89966064 47.97157715 -72.17432129 47.4822168 -71.42700195 46.97802734 C-70.62609131 46.44902832 -69.82518066 45.9200293 -69 45.375 C-67.2642437 44.20845119 -65.52857094 43.04177808 -63.79296875 41.875 C-62.85888184 41.25109375 -61.92479492 40.6271875 -60.96240234 39.984375 C-55.72614605 36.47685142 -50.52175587 32.92244127 -45.3125 29.375 C-43.1771265 27.92311359 -41.04171072 26.47128937 -38.90625 25.01953125 C-34.03721529 21.70700397 -29.16942138 18.3927699 -24.3125 15.0625 C-23.69133301 14.63718994 -23.07016602 14.21187988 -22.43017578 13.77368164 C-19.2624984 11.59437035 -16.12845708 9.377205 -13.0234375 7.109375 C-12.37850342 6.64007568 -11.73356934 6.17077637 -11.0690918 5.68725586 C-9.8495647 4.79622731 -8.63455974 3.89896288 -7.42504883 2.99438477 C-3.33066099 0 -3.33066099 0 0 0 Z " fill="#0CCEAB" transform="translate(890,505)"/>
<path d="M0 0 C2.64 1.32 5.28 2.64 8 4 C7.01471123 7.94115508 5.58380948 11.43613076 3.9375 15.125 C3.63166992 15.817146 3.32583984 16.50929199 3.01074219 17.22241211 C2.01066579 19.48318017 1.00572426 21.74173926 0 24 C-0.71233007 25.60282437 -1.42456889 27.2056893 -2.13671875 28.80859375 C-3.17184796 31.13816681 -4.20758778 33.46744923 -5.24633789 35.79541016 C-7.20190906 40.18159812 -9.11338583 44.58372852 -11 49 C-11.64209887 50.45998146 -12.28740405 51.91856186 -12.9375 53.375 C-13.27652344 54.13554688 -13.61554687 54.89609375 -13.96484375 55.6796875 C-14.30644531 56.44539062 -14.64804687 57.21109375 -15 58 C-16.0013304 60.25201935 -17.00192574 62.50434796 -18 64.7578125 C-18.65892576 66.2352476 -19.32542761 67.7093305 -20 69.1796875 C-22.65609704 75.01065053 -24.87622731 80.95628517 -27 87 C-30.95008059 86.31620454 -33.63457018 85.21156817 -37 83 C-34.36979099 74.57137566 -30.93062164 66.80513572 -26.9375 58.9375 C-25.24137956 55.58351748 -23.64672274 52.28719602 -22.375 48.75 C-21.37896461 46.03353985 -20.3758382 43.67054354 -19.0625 41.125 C-17.54331803 38.1787077 -16.26027242 35.21602561 -15.0625 32.125 C-13.72884402 28.70229695 -12.2535231 25.44800391 -10.5625 22.1875 C-8.01127532 17.23419916 -6.09217505 12.12250099 -4.2109375 6.8828125 C-3.08150056 4.19402391 -1.86059979 2.2262668 0 0 Z " fill="#0DCFAD" transform="translate(758,623)"/>
<path d="M0 0 C3.0726416 1.47206123 3.77433516 3.58892699 5.28125 6.60595703 C5.57603745 7.18597473 5.87082489 7.76599243 6.17454529 8.36358643 C7.13953628 10.26897037 8.08511986 12.18333545 9.03125 14.09814453 C9.6978232 15.42131798 10.36588729 16.74374136 11.03540039 18.06542969 C12.3926687 20.74737765 13.74376485 23.43229317 15.09033203 26.11962891 C17.82279003 31.56057745 20.64324287 36.95507943 23.46875 42.34814453 C23.95311523 43.27804199 24.43748047 44.20793945 24.93652344 45.16601562 C27.1104852 49.33514464 29.30243399 53.49203736 31.55078125 57.62158203 C32.12131226 58.67273193 32.12131226 58.67273193 32.70336914 59.74511719 C33.69734462 61.56916913 34.69984669 63.38856781 35.703125 65.20751953 C37.03125 67.97314453 37.03125 67.97314453 37.03125 70.97314453 C31.40625 73.97314453 31.40625 73.97314453 28.03125 73.97314453 C27.02640796 72.01729128 26.02751195 70.05838216 25.03125 68.09814453 C24.474375 67.00759766 23.9175 65.91705078 23.34375 64.79345703 C22.03125 61.97314453 22.03125 61.97314453 22.03125 59.97314453 C21.37125 59.97314453 20.71125 59.97314453 20.03125 59.97314453 C19.73468506 59.34448486 19.43812012 58.7158252 19.13256836 58.06811523 C11.75003005 42.42581911 11.75003005 42.42581911 3.73046875 27.10595703 C1.63472609 23.24208206 -0.36554631 19.33572189 -2.34375 15.41064453 C-2.86328247 14.39079468 -2.86328247 14.39079468 -3.39331055 13.3503418 C-4.948233 10.24712353 -6.21103052 7.35605206 -6.96875 3.97314453 C-2.59578279 -0.03540874 -2.59578279 -0.03540874 0 0 Z " fill="#0FD2AC" transform="translate(728.96875,768.02685546875)"/>
<path d="M0 0 C3.52321907 0.86318867 5.20098615 2.74024075 7.34375 5.57421875 C7.67375 5.90421875 8.00375 6.23421875 8.34375 6.57421875 C8.8031003 10.84971004 8.78682795 14.53298557 7.09375 18.51171875 C4.79281743 21.22353213 2.67289418 22.30114004 -0.8046875 23.015625 C-4.22494722 23.20163913 -6.66705295 23.23704122 -9.57421875 21.2890625 C-12.37954756 18.36379089 -14.04768726 15.65386596 -14.40625 11.57421875 C-14.04202408 7.52022589 -12.44144025 4.77574594 -9.63671875 1.87109375 C-6.47103006 -0.20190161 -3.70848785 -0.25132824 0 0 Z " fill="#132D51" transform="translate(702.65625,274.42578125)"/>
<path d="M0 0 C3.70390021 2.02666238 5.65363011 3.48044516 8 7 C8.48692434 11.30116499 8.28241006 13.48387126 6.1875 17.3125 C4 20 4 20 1 22 C-4.96984479 22.55276341 -8.04302623 21.4088518 -12.6015625 17.6953125 C-14.94835229 14.85032153 -14.65252059 12.08257458 -14.54296875 8.51953125 C-13.74115639 4.79889114 -12.04789332 3.16302107 -9 1 C-5.75038565 -0.62480718 -3.54760147 -0.64501845 0 0 Z " fill="#162F53" transform="translate(350,715)"/>
<path d="M0 0 C0.33 1.98 0.66 3.96 1 6 C2.051875 6.061875 3.10375 6.12375 4.1875 6.1875 C8.75244948 7.16035809 10.2931137 8.22676454 13 12 C13.53603554 16.44143734 13.50031654 18.24952518 11 22 C7.47005387 23.17664871 4.70544587 23.19850603 1 23 C0.01 22.34 -0.98 21.68 -2 21 C-2 20.34 -2 19.68 -2 19 C-6.53140653 18.06619039 -6.53140653 18.06619039 -11 19 C-12.2228253 15.3315241 -12.38634028 12.86340281 -12 9 C-9.2271139 3.6790564 -6.33871427 0 0 0 Z " fill="#24DFBF" transform="translate(695,947)"/>
<path d="M0 0 C4.09160596 0.8287742 6.82545442 3.00630195 9.140625 6.43359375 C9.95951599 9.60888534 9.89697672 12.2498807 9.140625 15.43359375 C7.34668832 18.30389244 6.15799224 19.92491013 3.140625 21.43359375 C-1.398594 21.9775866 -4.8138019 22.05648836 -8.796875 19.68359375 C-11.66551336 16.55417009 -12.69516292 14.71992169 -13.234375 10.49609375 C-12.76614191 6.6721902 -11.51656181 5.16670018 -8.859375 2.43359375 C-5.70935553 0.33358077 -3.76211666 -0.11843701 0 0 Z " fill="#173256" transform="translate(568.859375,383.56640625)"/>
<path d="M0 0 C3.40945111 1.92169063 5.37628103 3.3722456 6.80078125 7.08984375 C7.46921175 10.49012062 7.46708442 12.93985402 6.05859375 16.13671875 C3.92275463 19.13662954 2.14555229 20.70084303 -1.453125 21.640625 C-5.02191417 21.87569495 -7.78811059 21.91167135 -10.71875 19.70703125 C-13.21692292 16.76586837 -14.85670546 14.05082663 -15.375 10.25 C-14.8528401 5.7246142 -13.15770622 4.2328897 -10 1 C-6.75569653 -0.62215174 -3.50621358 -0.55292793 0 0 Z " fill="#153054" transform="translate(378,514)"/>
<path d="M0 0 C4.83562945 0.3223753 7.13326813 1.6890175 10.5625 5 C12.27868326 8.25171564 12.13162088 10.62460162 11.75 14.25 C10.09860695 17.7886994 9.03394771 19.06070153 5.75 21.25 C0.81987261 22.04383407 -3.05794774 21.96523135 -7.375 19.375 C-10.0034322 14.99427967 -10.30635856 11.23699505 -9.25 6.25 C-6.8125 3.1875 -6.8125 3.1875 -4.25 1.25 C-3.25 0.25 -3.25 0.25 0 0 Z " fill="#142E52" transform="translate(279.25,622.75)"/>
<path d="M0 0 C3.02508145 1.73602105 5.41790069 3.83580137 7 7 C7.44408691 10.9079648 7.13704844 12.74548146 5.25 16.25 C2.06346537 20.14465344 0.51738148 20.80687872 -4.4375 21.4375 C-8.91903826 20.88713565 -10.20852117 19.44829737 -13 16 C-14.60086627 12.79826746 -14.49917089 9.47422941 -14 6 C-10.37898357 0.32707427 -6.66444879 -1.13753115 0 0 Z " fill="#152F52" transform="translate(648,917)"/>
<path d="M0 0 C0.33 0 0.66 0 1 0 C1 71.28 1 142.56 1 216 C0.67 216 0.34 216 0 216 C0 208.74 0 201.48 0 194 C-0.66 194 -1.32 194 -2 194 C-2 191.69 -2 189.38 -2 187 C-1.34 187 -0.68 187 0 187 C0 125.29 0 63.58 0 0 Z " fill="#00CBA0" transform="translate(1074,507)"/>
<path d="M0 0 C7.64070742 -0.09265347 15.28135665 -0.16374109 22.92249775 -0.20724869 C26.47058762 -0.22812977 30.01829335 -0.25645545 33.56616211 -0.30175781 C37.64440613 -0.35350697 41.72224626 -0.37294074 45.80078125 -0.390625 C47.07585037 -0.41127014 48.35091949 -0.43191528 49.66462708 -0.45318604 C50.84562485 -0.45348816 52.02662262 -0.45379028 53.2434082 -0.45410156 C54.28487503 -0.46298401 55.32634186 -0.47186646 56.39936829 -0.48101807 C59 0 59 0 60.85978699 2.02838135 C61.23605728 2.6790155 61.61232758 3.32964966 62 4 C61.24022858 3.99777939 60.48045715 3.99555878 59.69766235 3.99327087 C52.54623969 3.97325451 45.39483056 3.95801898 38.24338722 3.94818783 C34.56654289 3.94296368 30.88972166 3.9358745 27.21289062 3.92456055 C23.6662104 3.91371507 20.11955243 3.90771963 16.5728569 3.90512276 C15.21803817 3.90327151 13.86322069 3.89965662 12.50841141 3.89426994 C10.61450635 3.88703762 8.72057902 3.88659176 6.82666016 3.88647461 C5.74744293 3.884254 4.66822571 3.88203339 3.55630493 3.87974548 C1.00922654 3.82676584 1.00922654 3.82676584 -1 5 C-0.67 3.35 -0.34 1.7 0 0 Z " fill="#233B5E" transform="translate(501,739)"/>
<path d="M0 0 C1.875 0.30859375 1.875 0.30859375 3.875 1.30859375 C5.50432095 4.56723565 5.40173518 7.74756719 4.875 11.30859375 C3.8125 13.30859375 3.8125 13.30859375 1.875 14.30859375 C-2.05594707 14.8088961 -4.2255787 14.90820795 -7.5625 12.68359375 C-9.58432313 9.6104226 -9.65255517 7.92611494 -9.125 4.30859375 C-7.22735706 -0.19830824 -4.46860694 -0.27107358 0 0 Z " fill="#163359" transform="translate(485.125,728.69140625)"/>
<path d="M0 0 C0.495 1.485 0.495 1.485 1 3 C-14.51 18.51 -30.02 34.02 -46 50 C-46.66 49.34 -47.32 48.68 -48 48 C-32.16 32.16 -16.32 16.32 0 0 Z " fill="#172F53" transform="translate(686,447)"/>
<path d="M0 0 C1.9375 1.125 1.9375 1.125 3 3 C3.53852618 6.61581862 3.42236225 8.34111489 1.4375 11.4375 C-1 13 -1 13 -4.625 12.9375 C-8 12 -8 12 -10 9 C-10.32162076 5.9124407 -10.48724515 3.85984439 -8.9375 1.125 C-5.8930714 -0.64273274 -3.4368988 -0.36823916 0 0 Z " fill="#183758" transform="translate(637,366)"/>
<path d="M0 0 C2.375 1.6875 2.375 1.6875 4 4 C3.93019221 6.86211941 3.37347914 8.42995288 1.8125 10.8125 C-0.91793933 12.60140853 -2.81738719 12.46413104 -6 12 C-7.9375 10.3125 -7.9375 10.3125 -9 8 C-8.86080792 5.14656236 -8.36922147 3.53537114 -6.75 1.1875 C-4.29122834 -0.4809522 -2.91471407 -0.49763411 0 0 Z " fill="#1B3558" transform="translate(702,956)"/>
<path d="M0 0 C4.75904718 0.11405124 8.07801733 0.36025692 12.0625 3.125 C14.48867576 6.72513177 14.55260971 8.73701081 14 13 C12 16 12 16 9 17 C5.14689752 17.35028204 2.86452877 17.55418511 -0.4375 15.4375 C-2.590908 12.07818353 -2.40700718 9.93440277 -2 6 C-1 2.5625 -1 2.5625 0 0 Z M0.625 4.6875 C-1.26879282 6.87935186 -1.26879282 6.87935186 -0.875 9.5625 C-0.03639506 12.20644784 -0.03639506 12.20644784 2 15 C5.66668859 15.55797435 7.36314287 15.44090109 10.4375 13.3125 C12.25051858 11.11102813 12.25051858 11.11102813 11.9375 8.4375 C10.92979572 5.81746887 10.32049623 4.57462244 8 3 C4.64108753 2.39711827 3.42420427 2.6985917 0.625 4.6875 Z " fill="#B7E3E2" transform="translate(694,953)"/>
<path d="M0 0 C3.69186542 2.59216083 4.82883761 4.04149064 5.625 8.5 C4.83397068 12.9297642 3.63525215 14.39210172 0 17 C-3 17.625 -3 17.625 -6 17 C-9.22668305 14.56206169 -10.718528 12.84441599 -12 9 C-12 5.40429055 -11.17631275 3.82114616 -9 1 C-5.86128812 -0.56935594 -3.46144178 -0.35201103 0 0 Z M-8.9375 3.125 C-10.52990283 5.93512264 -10.45319325 7.82764724 -10 11 C-8.58333333 13.58333333 -8.58333333 13.58333333 -6 15 C-2.37350049 15.08916154 -2.37350049 15.08916154 1 14 C3.31282587 10.53076119 3.42478586 9.07794425 3 5 C2.06402685 2.98048938 2.06402685 2.98048938 0 2 C-4.6649851 1.49451405 -4.6649851 1.49451405 -8.9375 3.125 Z " fill="#CBE9EA" transform="translate(637,364)"/>
<path d="M0 0 C0.33 0 0.66 0 1 0 C1.33 13.53 1.66 27.06 2 41 C2.33 41 2.66 41 3 41 C3 43.97 3 46.94 3 50 C1.515 50.495 1.515 50.495 0 51 C0 34.17 0 17.34 0 0 Z " fill="#02C69B" transform="translate(777,490)"/>
<path d="M0 0 C0.66 0.66 1.32 1.32 2 2 C0.0843735 4.08429801 -1.83246061 6.16746303 -3.75 8.25 C-4.28882813 8.83652344 -4.82765625 9.42304687 -5.3828125 10.02734375 C-8.19681853 13.08156981 -11.03381156 16.09140745 -14 19 C-14.99 18.67 -15.98 18.34 -17 18 C-11.72898586 11.58930713 -5.90871848 5.81409488 0 0 Z " fill="#1A3357" transform="translate(380,617)"/>
<path d="M0 0 C0.33 0.66 0.66 1.32 1 2 C-2.93972449 6.8137248 -7.1643008 11.29332791 -11.6875 15.5625 C-12.59886719 16.43003906 -13.51023437 17.29757812 -14.44921875 18.19140625 C-17 20 -17 20 -19.33203125 19.77734375 C-19.88246094 19.52082031 -20.43289063 19.26429688 -21 19 C-20.17242188 18.49984375 -19.34484375 17.9996875 -18.4921875 17.484375 C-14.18773577 14.61474051 -10.72307773 10.93872697 -7.125 7.25 C-6.43664062 6.55261719 -5.74828125 5.85523438 -5.0390625 5.13671875 C-3.35470418 3.42896657 -1.67522383 1.71670557 0 0 Z " fill="#0B3658" transform="translate(577,551)"/>
<path d="M0 0 C3.37503669 1.1858237 5.64722731 2.27573689 8 5 C7.34 6.32 6.68 7.64 6 9 C5.01 8.67 4.02 8.34 3 8 C3 6.35 3 4.7 3 3 C1.3603125 3.99 1.3603125 3.99 -0.3125 5 C-2.93707538 6.58464929 -3.8256378 7 -7 7 C-4.69 4.69 -2.38 2.38 0 0 Z " fill="#17D2AE" transform="translate(966,654)"/>
<path d="M0 0 C6.258654 -0.5326514 10.45108785 1.18150494 16 4 C15.67 4.66 15.34 5.32 15 6 C14.48953125 5.68289063 13.9790625 5.36578125 13.453125 5.0390625 C10.19785341 3.66023727 7.27156868 3.5706427 3.75 3.375 C1.85507812 3.26285156 1.85507812 3.26285156 -0.078125 3.1484375 C-1.04234375 3.09945313 -2.0065625 3.05046875 -3 3 C-2.01 2.67 -1.02 2.34 0 2 C0 1.34 0 0.68 0 0 Z " fill="#182F52" transform="translate(370,500)"/>
<path d="M0 0 C0.99 1.32 1.98 2.64 3 4 C2.236875 4.598125 1.47375 5.19625 0.6875 5.8125 C-1.3483575 7.46959332 -3.1978279 9.10297674 -5 11 C-5 10.34 -5 9.68 -5 9 C-5.99 8.67 -6.98 8.34 -8 8 C-7.236875 7.4225 -6.47375 6.845 -5.6875 6.25 C-3.33799083 4.28296907 -1.70676495 2.51523256 0 0 Z " fill="#E4F8F5" transform="translate(899,460)"/>
<path d="M0 0 C0.66 0.66 1.32 1.32 2 2 C-1.3 4.97 -4.6 7.94 -8 11 C-8.99 10.34 -9.98 9.68 -11 9 C-7.37 6.03 -3.74 3.06 0 0 Z " fill="#1E385B" transform="translate(409,688)"/>
<path d="M0 0 C1 3 1 3 0 6 C-0.35543427 8.33006911 -0.6913753 10.66327016 -1 13 C-1.33 13 -1.66 13 -2 13 C-2.33 14.65 -2.66 16.3 -3 18 C-3.33 18 -3.66 18 -4 18 C-4.474377 10.71304215 -4.28670939 6.02818509 0 0 Z " fill="#C8CFD8" transform="translate(549,381)"/>
<path d="M0 0 C0.66 0 1.32 0 2 0 C2 3.63 2 7.26 2 11 C1.01 11 0.02 11 -1 11 C-1.02688151 9.35425434 -1.04634123 7.70838587 -1.0625 6.0625 C-1.07410156 5.14597656 -1.08570313 4.22945312 -1.09765625 3.28515625 C-1 1 -1 1 0 0 Z " fill="#283E5D" transform="translate(337,720)"/>
<path d="M0 0 C0.33 0.99 0.66 1.98 1 3 C-1.97 5.97 -4.94 8.94 -8 12 C-8.99 11.67 -9.98 11.34 -11 11 C-7.37 7.37 -3.74 3.74 0 0 Z " fill="#243E61" transform="translate(686,447)"/>
<path d="M0 0 C0.96136276 2.59567945 1.0768013 3.7695961 0.1875 6.4375 C-0.204375 7.283125 -0.59625 8.12875 -1 9 C-1.350625 9.886875 -1.70125 10.77375 -2.0625 11.6875 C-3 14 -3 14 -4 16 C-4.66 16 -5.32 16 -6 16 C-5.54636829 14.41531323 -5.08688548 12.83230076 -4.625 11.25 C-4.36976563 10.36828125 -4.11453125 9.4865625 -3.8515625 8.578125 C-3.07668889 6.23217736 -2.16241489 4.17362134 -1 2 C-0.67 1.34 -0.34 0.68 0 0 Z " fill="#E5E8ED" transform="translate(773,1005)"/>
<path d="M0 0 C1.32 0.66 2.64 1.32 4 2 C3.360625 2.2475 2.72125 2.495 2.0625 2.75 C-0.19635114 3.78813195 -0.19635114 3.78813195 -0.5 6 C-1 8 -1 8 -3.0625 9.25 C-3.701875 9.4975 -4.34125 9.745 -5 10 C-3.33333333 6.66666667 -1.66666667 3.33333333 0 0 Z M-7 10 C-5 11 -5 11 -5 11 Z " fill="#233D63" transform="translate(301,640)"/>
<path d="M0 0 C0.99 0.33 1.98 0.66 3 1 C3.125 7.75 3.125 7.75 2 10 C1.34 10 0.68 10 0 10 C-0.74926071 6.33694766 -1.2380014 3.57644848 0 0 Z " fill="#DAF8F3" transform="translate(958,613)"/>
<path d="M0 0 C0 3.69942045 -0.85819127 4.40155392 -3.25 7.125 C-3.85328125 7.82882812 -4.4565625 8.53265625 -5.078125 9.2578125 C-7.10469267 11.09490433 -8.32969429 11.6100881 -11 12 C-7.49102731 7.81576108 -3.91939465 3.80411834 0 0 Z " fill="#04B79D" transform="translate(580,532)"/>
<path d="M0 0 C1.8871875 0.061875 1.8871875 0.061875 3.8125 0.125 C3.8125 0.785 3.8125 1.445 3.8125 2.125 C2.554375 2.228125 1.29625 2.33125 0 2.4375 C-3.32707417 2.82109156 -3.32707417 2.82109156 -6.0625 4.6875 C-6.43375 5.161875 -6.805 5.63625 -7.1875 6.125 C-7.8475 6.125 -8.5075 6.125 -9.1875 6.125 C-7.20938974 1.56013016 -5.01716504 -0.16449721 0 0 Z " fill="#213A5D" transform="translate(644.1875,916.875)"/>
<path d="M0 0 C1 2 1 2 1.375 4.4375 C2.07848918 7.32180564 2.6037602 8.28840014 5 10 C7.60611077 10.72197162 7.60611077 10.72197162 10 11 C10 11.33 10 11.66 10 12 C3.75 12.48076923 3.75 12.48076923 0.5625 10.4375 C-1.54048663 7.15684085 -1.360388 4.82011276 -1 1 C-0.67 0.67 -0.34 0.34 0 0 Z " fill="#BDEEEC" transform="translate(693,958)"/>
<path d="M0 0 C2.46751239 3.70126859 2.30721156 5.62223532 2 10 C1 12.4375 1 12.4375 0 14 C-0.33 13.67 -0.66 13.34 -1 13 C-0.90982004 10.80949979 -0.75333792 8.621534 -0.5625 6.4375 C-0.46066406 5.23996094 -0.35882812 4.04242187 -0.25390625 2.80859375 C-0.17011719 1.88175781 -0.08632813 0.95492187 0 0 Z " fill="#EEF0F2" transform="translate(664,921)"/>
<path d="M0 0 C1.45839897 3.95705456 0.67906093 7.69831388 0.0625 11.75 C-0.03740234 12.44738281 -0.13730469 13.14476562 -0.24023438 13.86328125 C-0.48665873 15.57651726 -0.74240955 17.28840725 -1 19 C-1.33 19 -1.66 19 -2 19 C-2.05411124 16.58303128 -2.09372278 14.16728213 -2.125 11.75 C-2.14175781 11.06808594 -2.15851562 10.38617187 -2.17578125 9.68359375 C-2.21213482 5.9391765 -2.07944349 3.17647273 0 0 Z " fill="#22D2B6" transform="translate(752,857)"/>
<path d="M0 0 C4.62 0 9.24 0 14 0 C14 0.99 14 1.98 14 3 C12.54364629 3.22174933 11.08477044 3.42698698 9.625 3.625 C8.81289063 3.74101563 8.00078125 3.85703125 7.1640625 3.9765625 C6.44992187 3.98429688 5.73578125 3.99203125 5 4 C4.34 3.34 3.68 2.68 3 2 C2.01 1.34 1.02 0.68 0 0 Z " fill="#405776" transform="translate(477,753)"/>
<path d="M0 0 C0.33 0.66 0.66 1.32 1 2 C-4.96583144 9.66742597 -4.96583144 9.66742597 -10 11 C-6.79239749 7.19364503 -3.59253891 3.45436433 0 0 Z " fill="#07B9A4" transform="translate(443,702)"/>
<path d="M0 0 C0.66 0.33 1.32 0.66 2 1 C-1.77700912 5.89612293 -5.31782604 10.36356759 -11 13 C-10.62488281 12.56429687 -10.24976563 12.12859375 -9.86328125 11.6796875 C-6.54140223 7.81392401 -3.25357073 3.92342352 0 0 Z " fill="#D9F7F3" transform="translate(952,684)"/>
<path d="M0 0 C1.12894876 0.93274109 2.25300876 1.87140122 3.375 2.8125 C4.00148438 3.33457031 4.62796875 3.85664062 5.2734375 4.39453125 C7 6 7 6 9 9 C6 9 6 9 4.17578125 7.46875 C3.56089844 6.8190625 2.94601562 6.169375 2.3125 5.5 C1.68988281 4.8503125 1.06726563 4.200625 0.42578125 3.53125 C-0.04472656 3.0259375 -0.51523437 2.520625 -1 2 C-0.67 1.34 -0.34 0.68 0 0 Z " fill="#0E385B" transform="translate(593,696)"/>
<path d="M0 0 C1.28132813 0.00902344 2.56265625 0.01804687 3.8828125 0.02734375 C4.87023437 0.03894531 5.85765625 0.05054688 6.875 0.0625 C6.875 0.3925 6.875 0.7225 6.875 1.0625 C4.58559044 1.45104209 2.29335426 1.8229628 0 2.1875 C-1.91425781 2.50074219 -1.91425781 2.50074219 -3.8671875 2.8203125 C-5.47980469 2.94019531 -5.47980469 2.94019531 -7.125 3.0625 C-7.785 2.4025 -8.445 1.7425 -9.125 1.0625 C-6.12186252 -0.43906874 -3.33432478 -0.03031204 0 0 Z " fill="#CCD1DB" transform="translate(374.125,502.9375)"/>
<path d="M0 0 C1.093125 0.103125 2.18625 0.20625 3.3125 0.3125 C3.3125 0.6425 3.3125 0.9725 3.3125 1.3125 C2.343125 1.621875 1.37375 1.93125 0.375 2.25 C-2.52815792 3.00773342 -2.52815792 3.00773342 -3.6875 4.3125 C-3.72842937 6.64547433 -3.72991723 8.97955225 -3.6875 11.3125 C-4.3475 11.3125 -5.0075 11.3125 -5.6875 11.3125 C-6.57059258 7.86041082 -6.87081708 5.83953662 -5.6875 2.4375 C-3.6875 0.3125 -3.6875 0.3125 0 0 Z " fill="#89CCC7" transform="translate(631.6875,364.6875)"/>
<path d="M0 0 C-5.14285714 4.42857143 -5.14285714 4.42857143 -9 5 C-9.33 4.01 -9.66 3.02 -10 2 C-3.375 -1.125 -3.375 -1.125 0 0 Z " fill="#1BD7AF" transform="translate(769,550)"/>
<path d="M0 0 C2.3125 -0.25 2.3125 -0.25 5 0 C5.99 1.32 6.98 2.64 8 4 C4.7 4 1.4 4 -2 4 C-1.34 2.68 -0.68 1.36 0 0 Z " fill="#17304F" transform="translate(697,956)"/>
<path d="M0 0 C0.99 0 1.98 0 3 0 C3.33 1.32 3.66 2.64 4 4 C2.02 4.99 0.04 5.98 -2 7 C-1.125 1.125 -1.125 1.125 0 0 Z " fill="#20D8B0" transform="translate(860,720)"/>
<path d="M0 0 C-3.50388628 1.65461297 -5.32352539 2.26378815 -9 1 C-10.66519519 0.65939189 -12.33157466 0.32441604 -14 0 C-14 -0.33 -14 -0.66 -14 -1 C-12.41870971 -1.22331199 -10.83478911 -1.42804644 -9.25 -1.625 C-8.36828125 -1.74101563 -7.4865625 -1.85703125 -6.578125 -1.9765625 C-3.77140122 -2.00207817 -2.36615134 -1.44843844 0 0 Z " fill="#3B5372" transform="translate(385,547)"/>
<path d="M0 0 C2.93200474 2.85276137 5.64315404 5.65079784 8 9 C5 9 5 9 3.39453125 7.46875 C2.87246094 6.8190625 2.35039063 6.169375 1.8125 5.5 C1.28269531 4.8503125 0.75289062 4.200625 0.20703125 3.53125 C-0.19128906 3.0259375 -0.58960938 2.520625 -1 2 C-0.67 1.34 -0.34 0.68 0 0 Z " fill="#18CCA6" transform="translate(969,641)"/>
<path d="M0 0 C1.65 0.33 3.3 0.66 5 1 C4.21625 1.7425 3.4325 2.485 2.625 3.25 C0.43495469 5.54433318 -0.82731386 7.12158858 -2 10 C-3 8 -3 8 -2.44140625 6.0546875 C-2.15136719 5.33539062 -1.86132812 4.61609375 -1.5625 3.875 C-1.27503906 3.15054688 -0.98757813 2.42609375 -0.69140625 1.6796875 C-0.46324219 1.12539063 -0.23507812 0.57109375 0 0 Z " fill="#1CCCAC" transform="translate(756,625)"/>
<path d="M0 0 C0.66 0.33 1.32 0.66 2 1 C2 3 2 3 0.125 5.125 C-2 7 -2 7 -4 7 C-4 8.65 -4 10.3 -4 12 C-4.33 12 -4.66 12 -5 12 C-5.35338623 9.03155565 -5.5417682 6.84401782 -3.88671875 4.265625 C-2.64496832 2.79651181 -1.32662082 1.39295186 0 0 Z " fill="#384D6C" transform="translate(368,515)"/>
<path d="M0 0 C1.65 0.33 3.3 0.66 5 1 C3.515 3.475 3.515 3.475 2 6 C0.35 5.67 -1.3 5.34 -3 5 C-2.01 3.35 -1.02 1.7 0 0 Z " fill="#E1F9F6" transform="translate(809,409)"/>
<path d="M0 0 C0 3 0 3 -1.53125 4.60546875 C-2.1809375 5.12753906 -2.830625 5.64960937 -3.5 6.1875 C-4.1496875 6.71730469 -4.799375 7.24710938 -5.46875 7.79296875 C-5.9740625 8.19128906 -6.479375 8.58960938 -7 9 C-7.66 8.67 -8.32 8.34 -9 8 C-7.87811441 6.85111717 -6.75238316 5.70598863 -5.625 4.5625 C-4.99851562 3.92441406 -4.37203125 3.28632812 -3.7265625 2.62890625 C-2 1 -2 1 0 0 Z " fill="#19D3B3" transform="translate(808,826)"/>
<path d="M0 0 C0.33 1.32 0.66 2.64 1 4 C-2.87564767 7.61139896 -2.87564767 7.61139896 -5 9 C-7.375 8.8125 -7.375 8.8125 -9 8 C-8.071875 7.4225 -7.14375 6.845 -6.1875 6.25 C-3.40184158 4.28365288 -1.81261304 2.81962028 0 0 Z " fill="#1E3458" transform="translate(392,536)"/>
<path d="M0 0 C0.66 0.66 1.32 1.32 2 2 C0.02 3.98 -1.96 5.96 -4 8 C-4.99 7.67 -5.98 7.34 -7 7 C-4.69 4.69 -2.38 2.38 0 0 Z " fill="#0A3658" transform="translate(630,461)"/>
<path d="M0 0 C0.33 0 0.66 0 1 0 C1.1953125 2.01822917 1.390625 4.03645833 1.5859375 6.0546875 C1.86374749 8.22668245 1.86374749 8.22668245 4 10 C2.35 10 0.7 10 -1 10 C-0.67 6.7 -0.34 3.4 0 0 Z " fill="#1ED3B1" transform="translate(818,590)"/>
<path d="M0 0 C0.66 0.66 1.32 1.32 2 2 C0.68 3.65 -0.64 5.3 -2 7 C-2.99 6.67 -3.98 6.34 -5 6 C-3.35 4.02 -1.7 2.04 0 0 Z " fill="#E5E8EC" transform="translate(717,297)"/>
<path d="M0 0 C0.33 0.99 0.66 1.98 1 3 C-0.65 4.65 -2.3 6.3 -4 8 C-4.99 7.67 -5.98 7.34 -7 7 C-4.69 4.69 -2.38 2.38 0 0 Z " fill="#183258" transform="translate(490,192)"/>
<path d="M0 0 C0.66 0.33 1.32 0.66 2 1 C1.25 6.75 1.25 6.75 -1 9 C-1.66 9 -2.32 9 -3 9 C-2.01 6.03 -1.02 3.06 0 0 Z " fill="#D3F7F1" transform="translate(736,694)"/>
<path d="M0 0 C0.66 0.33 1.32 0.66 2 1 C2 3.31 2 5.62 2 8 C1.01 7.67 0.02 7.34 -1 7 C-1.04254356 5.00045254 -1.04080783 2.99958364 -1 1 C-0.67 0.67 -0.34 0.34 0 0 Z " fill="#26D6B4" transform="translate(551,561)"/>
<path d="M0 0 C1.2065625 0.0309375 1.2065625 0.0309375 2.4375 0.0625 C1.7775 1.3825 1.1175 2.7025 0.4375 4.0625 C-0.2225 4.0625 -0.8825 4.0625 -1.5625 4.0625 C-2.2225 4.7225 -2.8825 5.3825 -3.5625 6.0625 C-3.605221 4.39638095 -3.60313832 2.72867115 -3.5625 1.0625 C-2.5625 0.0625 -2.5625 0.0625 0 0 Z " fill="#0CC7A3" transform="translate(944.5625,448.9375)"/>
<path d="M0 0 C2.97 0.33 5.94 0.66 9 1 C9 1.33 9 1.66 9 2 C7.6078125 2.1546875 7.6078125 2.1546875 6.1875 2.3125 C2.96745642 3.0070192 1.97420135 3.47740939 0 6 C0 4.02 0 2.04 0 0 Z " fill="#78D9CE" transform="translate(694,953)"/>
<path d="M0 0 C1.65 0 3.3 0 5 0 C5 1.65 5 3.3 5 5 C4.01 5.495 4.01 5.495 3 6 C0 2.25 0 2.25 0 0 Z " fill="#23C8AC" transform="translate(812,557)"/>
<path d="M0 0 C2.46800047 1.15173355 4.04783565 2.04783565 6 4 C5.625 6.125 5.625 6.125 5 8 C4.38125 7.21625 3.7625 6.4325 3.125 5.625 C1.10141339 3.03162353 1.10141339 3.03162353 -1 1 C-0.67 0.67 -0.34 0.34 0 0 Z " fill="#233C60" transform="translate(387,505)"/>
<path d="M0 0 C0.66 0.99 1.32 1.98 2 3 C0.02 4.98 -1.96 6.96 -4 9 C-4.66 8.67 -5.32 8.34 -6 8 C-4.02 5.36 -2.04 2.72 0 0 Z " fill="#D8F6F3" transform="translate(733,752)"/>
<path d="M0 0 C3.00617269 3.00617269 2.59585316 5.82381598 3 10 C2.34 10 1.68 10 1 10 C-1.125 3.375 -1.125 3.375 0 0 Z " fill="#20D9B1" transform="translate(733,727)"/>
<path d="M0 0 C3.36720387 1.39332574 4.9859524 2.9789286 7 6 C4 6 4 6 1.8125 4.125 C0 2 0 2 0 0 Z " fill="#304768" transform="translate(645,710)"/>
<path d="M0 0 C0.99 0.33 1.98 0.66 3 1 C3.33 2.65 3.66 4.3 4 6 C1.525 5.01 1.525 5.01 -1 4 C-0.67 2.68 -0.34 1.36 0 0 Z " fill="#2ED2B3" transform="translate(722,702)"/>
<path d="M0 0 C-1.39332574 3.36720387 -2.9789286 4.9859524 -6 7 C-6 4 -6 4 -4.125 1.8125 C-2 0 -2 0 0 0 Z " fill="#2C4363" transform="translate(420,560)"/>
<path d="M0 0 C0.66 0.66 1.32 1.32 2 2 C-1.465 4.97 -1.465 4.97 -5 8 C-5.66 7.67 -6.32 7.34 -7 7 C-4.69 4.69 -2.38 2.38 0 0 Z " fill="#093C59" transform="translate(590,538)"/>
<path d="M0 0 C0.66 0.66 1.32 1.32 2 2 C0.1875 3.5625 0.1875 3.5625 -2 5 C-2.99 4.67 -3.98 4.34 -5 4 C-3.36587557 2.29159719 -2.13093906 1.06546953 0 0 Z " fill="#1F385A" transform="translate(526,527)"/>
<path d="M0 0 C7.50769231 -0.36923077 7.50769231 -0.36923077 10 1.5 C10.495 2.2425 10.495 2.2425 11 3 C10.01 3.33 9.02 3.66 8 4 C7.34 3.34 6.68 2.68 6 2 C4.01178687 1.60235737 2.01055661 1.26224651 0 1 C0 0.67 0 0.34 0 0 Z " fill="#CEE1E4" transform="translate(696,955)"/>
<path d="M0 0 C2 3 2 3 2 6 C1.01 6 0.02 6 -1 6 C-1.33 4.35 -1.66 2.7 -2 1 C-1.34 0.67 -0.68 0.34 0 0 Z " fill="#08C39C" transform="translate(755,879)"/>
<path d="M0 0 C-4.29 -0.33 -8.58 -0.66 -13 -1 C-13 -1.33 -13 -1.66 -13 -2 C-11.39884424 -2.2493357 -9.79379841 -2.47378648 -8.1875 -2.6875 C-7.29417969 -2.81511719 -6.40085937 -2.94273437 -5.48046875 -3.07421875 C-3 -3 -3 -3 0 0 Z " fill="#21385A" transform="translate(563,743)"/>
<path d="M0 0 C0.66 0.33 1.32 0.66 2 1 C2 1.66 2 2.32 2 3 C0.1875 4.6875 0.1875 4.6875 -2 6 C-2.99 5.67 -3.98 5.34 -5 5 C-3.35 3.35 -1.7 1.7 0 0 Z " fill="#EAEDF1" transform="translate(334,707)"/>
<path d="M0 0 C0.66 0.33 1.32 0.66 2 1 C2 1.66 2 2.32 2 3 C-0.5 4.625 -0.5 4.625 -3 6 C-3.66 5.34 -4.32 4.68 -5 4 C-3.35 2.68 -1.7 1.36 0 0 Z " fill="#20385B" transform="translate(416,682)"/>
<path d="M0 0 C0.66 0.99 1.32 1.98 2 3 C0.625 5 0.625 5 -1 7 C-1.66 7 -2.32 7 -3 7 C-1.125 1.125 -1.125 1.125 0 0 Z " fill="#33D6BA" transform="translate(745,565)"/>
</svg>
